<svg width="95" height="30" viewBox="0 0 95 30" fill="none" xmlns="http://www.w3.org/2000/svg">
<path d="M23.7187 0.2522L21.1421 21.028H24.7245L25.0387 17.7848H27.5529L27.8353 21.028H31.5753L28.9977 0.2522H23.7187ZM25.3529 14.5745L26.0128 7.61784L26.2646 4.37576H26.3905L26.6095 7.61784L27.2388 14.5745H25.3529ZM38.5979 21.0276L36.9013 13.0008L36.0214 8.499H35.9589L36.0532 12.969V21.0276H32.6589V0.251815H37.0897L38.8179 8.499L39.5498 12.0557C39.8281 13.5688 40.5515 14.926 41.5669 15.9961L40.4839 21.0276H38.5979ZM43.0922 17.2408C44.0938 17.8659 45.2478 18.2686 46.4864 18.3798V21.0274H43.0922V17.2408ZM16.3061 0.251875H20.0452V21.0277H16.3061V12.2137H14.4203V21.0277H10.6495V0.251875H14.4203V8.65691H16.3061V0.251875ZM40.8166 6.20563L42.0869 0.252272H46.486V2.89993C44.1378 3.1108 42.0922 4.36948 40.8166 6.20563ZM9.39567 4.62783V8.56281H5.65665V4.62783C5.65665 3.74635 5.31074 3.3374 4.74496 3.3374C4.17905 3.3374 3.83315 3.74635 3.83315 4.62783V16.6204C3.83315 17.5019 4.14728 17.9426 4.74496 17.9426C5.31074 17.9426 5.65665 17.5654 5.65665 16.6204V12.1821H9.39567V16.6204C9.39567 19.8317 7.57321 21.2483 4.74496 21.2483C1.69658 21.2483 1.44992e-05 19.8625 1.44992e-05 16.6204V4.62783C1.44992e-05 1.70042 1.66481 0.0316911 4.74496 0.0316911C7.85559 0.0316911 9.39567 1.44828 9.39567 4.62783ZM84.4568 21.0278H80.1518L78.2035 11.2698L77.5752 7.4916H77.5118L77.5436 11.2698V21.0278H74.1493V0.252008H78.5801L80.466 9.66364L81.0319 13.2521H81.0942L81.0625 9.66364V0.252008H84.4568V21.0278ZM95 14.071V16.6202C95 19.5168 93.9623 21.2798 90.4434 21.2798C86.7668 21.2798 85.7292 19.7372 85.7292 16.9041V14.3539L89.4375 14.3232V16.8405C89.4375 17.7856 89.7834 18.3207 90.3493 18.3207C90.9458 18.3207 91.2292 17.8482 91.2292 16.9041V15.1093C91.2292 13.8188 91.1341 13.3473 89.6257 12.3398L87.6775 11.1118C85.9492 9.97922 85.6668 8.78301 85.6668 6.29636V4.3755C85.6668 1.82633 86.9868 0.000781868 90.3175 0.000781868C93.8058 0.000781868 94.8106 1.73204 94.8106 4.24939V6.70532H91.1033V4.31297C91.1033 3.39967 90.8517 2.99071 90.2552 2.99071C89.6257 2.99071 89.3751 3.43149 89.3751 4.34478V5.88631C89.3751 7.11428 89.6257 7.61758 90.6634 8.31049L92.2659 9.28625C94.2141 10.5143 95 11.6469 95 14.071ZM72.8325 16.5261V4.75289C72.8325 1.2905 71.3241 0 68.15 0C64.9134 0 63.4052 1.32225 63.4052 4.75289V16.5261C63.4052 19.8625 64.9134 21.2791 68.15 21.2791C71.3241 21.2791 72.8325 19.8625 72.8325 16.5261ZM69.0618 16.5261C69.0618 17.4394 68.7793 17.9427 68.15 17.9427C67.4594 17.9427 67.1758 17.4702 67.1758 16.5261V4.75289C67.1758 3.74641 67.4594 3.33636 68.15 3.33636C68.7793 3.33636 69.0618 3.74641 69.0618 4.75289V16.5261ZM62.0602 21.0281H58.3201V0.252333H62.0602V21.0281ZM47.8469 18.3829C49.2419 18.2653 50.5313 17.779 51.6175 17.0204V21.0274H47.8469V18.3829ZM57.0544 4.72212V9.63286C57.0544 12.1503 56.0717 13.5096 54.2356 13.8931C54.6915 12.9025 54.9474 11.8017 54.9474 10.6394C54.9474 8.82446 54.3244 7.15579 53.2836 5.83245V4.62777C53.2836 3.77805 53.032 3.36806 52.2153 3.36806H51.6178V4.2591C50.5304 3.5005 49.2422 3.0142 47.847 2.89658V0.252008H53.032C55.7967 0.252008 57.0544 1.60607 57.0544 4.72212ZM43.2405 13.0808H42.1341V8.39888H43.2405V13.0808ZM45.0706 10.7465C45.0706 11.4786 45.5307 12.0857 46.3578 12.0857C46.8232 12.0857 47.1669 11.9268 47.5023 11.6301L48.1104 12.5339C47.7032 12.91 47.0824 13.1399 46.306 13.1399C44.9415 13.1399 43.9325 12.27 43.9325 10.7465C43.9325 9.36804 44.7861 8.33293 46.326 8.33293C46.985 8.33293 47.6514 8.55752 48.1232 9.07879L47.4314 9.91585C47.1987 9.63189 46.8041 9.38817 46.2934 9.38817C45.6333 9.38817 45.0706 9.88933 45.0706 10.7465ZM49.4883 10.7465C49.4883 11.4786 49.9473 12.0857 50.7754 12.0857C51.2409 12.0857 51.5836 11.9268 51.9199 11.6301L52.528 12.5339C52.1208 12.91 51.5 13.1399 50.7237 13.1399C49.3592 13.1399 48.3501 12.27 48.3501 10.7465C48.3501 9.36804 49.2037 8.33293 50.7437 8.33293C51.4027 8.33293 52.069 8.55752 52.5408 9.07879L51.849 9.91585C51.6164 9.63189 51.2218 9.38817 50.711 9.38817C50.051 9.38817 49.4883 9.88933 49.4883 10.7465ZM0 24.7187H3.96546V25.8127H2.60211V29.9318H1.35604V25.8127H0V24.7187ZM8.72966 26.4295C8.72966 25.4458 8.20187 24.7187 6.86788 24.7187H4.83754V29.9318H6.03232V28.2505H6.50875C7.0145 28.7497 7.38825 29.3369 7.63753 29.9318H9.02279C8.74428 29.2415 8.37041 28.5587 7.78403 27.9346C8.39246 27.6703 8.72966 27.149 8.72966 26.4295ZM6.64794 27.1785H6.03233V25.7981H6.66997C7.21969 25.7981 7.46156 26.0918 7.46156 26.4883C7.46156 26.9216 7.17574 27.1785 6.64794 27.1785ZM12.3168 24.6453C10.7335 24.6453 9.63405 25.7541 9.63405 27.3254C9.63405 28.8966 10.7335 29.9979 12.3168 29.9979C13.8707 29.9979 14.9921 28.9185 14.9921 27.3254C14.9921 25.7246 13.8707 24.6453 12.3168 24.6453ZM12.3168 28.8597C11.4958 28.8597 10.9168 28.1771 10.9168 27.3254C10.9168 26.4736 11.4958 25.7907 12.3168 25.7907C13.123 25.7907 13.7093 26.459 13.7093 27.3254C13.7093 28.1917 13.123 28.8597 12.3168 28.8597ZM18.0569 24.7187H16.0778V29.9318H17.2726V28.2505H17.9616C19.1416 28.2505 19.9113 27.6777 19.9113 26.5175C19.9113 25.475 19.3395 24.7187 18.0569 24.7187ZM17.8224 27.1785H17.2726V25.7981H17.8443C18.394 25.7981 18.6433 26.0918 18.6433 26.4883C18.6433 26.9216 18.3647 27.1785 17.8224 27.1785ZM23.9104 24.7187H25.1418V29.9318H23.9104V27.9641H22.078V29.9318H20.8392V24.7187H22.078V26.8774H23.9104V24.7187ZM29.1753 24.7187H30.59L28.8821 27.6999V29.9318H27.6361V27.6999L25.9429 24.7187H27.3429L28.2591 26.5102H28.2738L29.1753 24.7187ZM35.1346 28.8167H36.8384V29.9318H33.3852L33.37 29.1277L34.9226 27.4892C35.3011 27.0871 35.5587 26.7459 35.5435 26.3438C35.5359 26.063 35.3542 25.79 34.8846 25.79C34.4909 25.79 34.1198 25.9872 33.8699 26.1995L33.2944 25.2058C33.7109 24.91 34.294 24.6521 35.0513 24.6521C36.1267 24.6521 36.7931 25.2439 36.7931 26.1617C36.7931 26.6623 36.5961 27.2843 35.9373 27.9672L35.1269 28.7938L35.1346 28.8167ZM39.8339 24.6521C38.5087 24.6521 37.759 25.714 37.759 27.3223C37.759 28.9988 38.5313 30 39.8339 30C41.1591 30 41.9089 28.9532 41.9089 27.3223C41.9089 25.6535 41.1288 24.6521 39.8339 24.6521ZM39.8339 28.847C39.2963 28.847 39.0235 28.2326 39.0235 27.3223C39.0235 26.2982 39.3492 25.8051 39.8339 25.8051C40.3791 25.8051 40.6442 26.412 40.6442 27.3223C40.6442 28.3615 40.3185 28.847 39.8339 28.847ZM44.4628 28.8167H46.1666V29.9318H42.7134L42.6983 29.1277L44.2507 27.4892C44.6293 27.0871 44.8869 26.7459 44.8716 26.3438C44.8641 26.063 44.6824 25.79 44.2129 25.79C43.819 25.79 43.4479 25.9872 43.1981 26.1995L42.6225 25.2058C43.0391 24.91 43.6222 24.6521 44.3794 24.6521C45.4547 24.6521 46.1211 25.2439 46.1211 26.1617C46.1211 26.6623 45.9243 27.2843 45.2654 27.9672L44.4552 28.7938L44.4628 28.8167ZM50.9174 28.225C50.9174 29.3022 50.2132 30 48.9106 30C48.2064 30 47.6307 29.8028 47.1537 29.4843L47.6838 28.4451C48.0473 28.7105 48.4411 28.885 48.8804 28.885C49.3953 28.885 49.683 28.6347 49.683 28.2023C49.683 27.7244 49.3044 27.5043 48.8651 27.5043C48.5774 27.5043 48.3276 27.5801 48.0625 27.7622L47.4567 27.4588L47.6232 24.7204H50.6448V25.8278H48.638L48.585 26.6396C48.8424 26.5789 49.1302 26.5485 49.312 26.5485C50.2662 26.5485 50.9174 27.2085 50.9174 28.225ZM55.85 27.6115C55.85 28.1183 55.4395 28.5221 54.9265 28.5221C54.428 28.5221 54.0103 28.1183 54.0103 27.6115C54.0103 27.105 54.428 26.6939 54.9265 26.6939C55.4395 26.6939 55.85 27.105 55.85 27.6115ZM60.8862 24.7187H58.9071V29.9318H60.1019V28.2505H60.7908C61.9709 28.2505 62.7406 27.6777 62.7406 26.5175C62.7406 25.475 62.1688 24.7187 60.8862 24.7187ZM60.6516 27.1785H60.1019V25.7981H60.6736C61.2233 25.7981 61.4726 26.0918 61.4726 26.4883C61.4726 26.9216 61.1939 27.1785 60.6516 27.1785ZM64.7956 24.7187L62.8826 29.9318H64.1653L64.4732 28.992H66.2909L66.5987 29.9318H67.8742L65.9684 24.7187H64.7956ZM64.803 27.9641L65.3747 26.2018H65.3893L65.9684 27.9641H64.803ZM71.226 26.9289C71.9955 27.7438 72.7212 28.9039 73.0877 29.9318H71.7024C71.4531 29.2342 70.9475 28.4193 70.4051 27.8245L69.9212 28.4267V29.9318H68.6972V24.7187H69.9212V26.782H69.936L71.4972 24.7187H73.051L71.226 26.9289ZM73.9314 24.7187H75.1847V29.9318H73.9314V24.7187ZM80.0784 28.4045C80.0784 29.5646 79.1841 29.9979 78.114 29.9979C77.4104 29.9979 76.7213 29.8142 76.2156 29.4177L76.7434 28.3898C77.2052 28.7424 77.7255 28.9112 78.1213 28.9112C78.5904 28.9112 78.7956 28.7204 78.7956 28.4779C78.7956 28.1844 78.5465 28.0741 77.9161 27.8614C77.1392 27.5969 76.3182 27.2446 76.3182 26.2018C76.3182 25.1813 77.0806 24.6528 78.1361 24.6528C78.8397 24.6528 79.4847 24.8363 79.9611 25.2254L79.3014 26.2092C78.9496 25.923 78.5465 25.7246 78.1507 25.7246C77.8355 25.7246 77.5863 25.8568 77.5863 26.136C77.5863 26.4002 77.7842 26.5324 78.4073 26.7601C79.2795 27.0904 80.0784 27.3546 80.0784 28.4045ZM84.6961 25.8127H83.3327V29.9318H82.0867V25.8127H80.7306V24.7187H84.6961L84.6961 25.8127ZM86.5686 24.7187L84.6555 29.9318H85.9383L86.2461 28.992H88.0638L88.3717 29.9318H89.6471L87.7414 24.7187H86.5686ZM86.5759 27.9641L87.1477 26.2018H87.1623L87.7413 27.9641H86.5759ZM93.7905 24.7187H94.9999V29.9318H93.7978L91.6869 26.7893H91.6723V29.9318H90.4702V24.7187H91.6429L93.7759 27.9421L93.7905 27.9346V24.7187Z" fill="#00E000"/>
</svg>
