<svg width="190" height="57" viewBox="0 0 190 57" fill="none" xmlns="http://www.w3.org/2000/svg">
<path d="M183.121 0.21582H6.97596C3.17664 0.21582 0.0966797 3.29578 0.0966797 7.0951V49.8809C0.0966797 53.6802 3.17664 56.7602 6.97596 56.7602H183.121C186.921 56.7602 190.001 53.6802 190.001 49.8809V7.0951C190.001 3.29578 186.921 0.21582 183.121 0.21582Z" fill="white"/>
<path d="M182.572 0.484967C186.521 0.484967 189.733 3.69746 189.733 7.6463V49.3288C189.733 53.2777 186.521 56.4902 182.572 56.4902H7.52466C3.57582 56.4902 0.36333 53.2777 0.36333 49.3288V7.64381C0.36333 3.69496 3.57582 0.48247 7.52466 0.48247H182.569M182.572 0.215387H7.52466C3.42106 0.215387 0.09375 3.5427 0.09375 7.6463V49.3288C0.09375 53.4324 3.42106 56.7597 7.52466 56.7597H182.569C186.673 56.7597 190 53.4324 190 49.3288V7.64381C190 3.5402 186.673 0.212891 182.569 0.212891L182.572 0.215387Z" fill="#1D1D1B"/>
<path d="M66.6089 16.3215H63.5013L62.8623 18.4232H60.6357L63.7958 9.11523H66.4991L69.6592 18.4232H67.233L66.6064 16.3215H66.6089ZM63.9456 14.6841H66.1771L65.1312 11.1571H65.0089L63.9456 14.6841Z" fill="#1D1D1B"/>
<path d="M71.6592 11.2676L72.9746 16.4595H73.0969L74.3924 11.2676H76.6564L74.2451 18.4264H71.774L69.3428 11.2676H71.6592Z" fill="#1D1D1B"/>
<path d="M77.0693 16.3698C77.0693 15.0743 78.0753 14.313 79.8999 14.2081L81.5199 14.1108V13.5442C81.5199 13.0225 81.138 12.718 80.4565 12.718C79.8375 12.718 79.4257 12.9251 79.2759 13.3245H77.3289C77.4388 11.9566 78.6893 11.1055 80.5789 11.1055C82.4684 11.1055 83.6366 12.0016 83.6366 13.5442V18.4266H81.5474V17.523H81.425C81.0906 18.1495 80.3093 18.5364 79.3932 18.5364C78.0204 18.5364 77.0718 17.6852 77.0718 16.3698H77.0693ZM81.5199 15.8456V15.3563L80.2369 15.4412C79.5205 15.4936 79.1536 15.7632 79.1536 16.2275C79.1536 16.6918 79.5604 17.0088 80.1595 17.0088C80.9283 17.0088 81.5199 16.5046 81.5199 15.8481V15.8456Z" fill="#1D1D1B"/>
<path d="M85.0811 9.38994C85.0811 8.79586 85.5453 8.39648 86.3066 8.39648C87.068 8.39648 87.5397 8.79586 87.5397 9.38994C87.5397 9.98401 87.0754 10.3834 86.3066 10.3834C85.5378 10.3834 85.0811 9.97652 85.0811 9.38994ZM85.2358 11.267H87.3825V18.4258H85.2358V11.267Z" fill="#1D1D1B"/>
<path d="M89.0664 8.57129H91.2205V18.4259H89.0664V8.57129Z" fill="#1D1D1B"/>
<path d="M92.5361 16.3698C92.5361 15.0743 93.5421 14.313 95.3667 14.2081L96.9867 14.1108V13.5442C96.9867 13.0225 96.6048 12.718 95.9234 12.718C95.3043 12.718 94.8925 12.9251 94.7427 13.3245H92.7957C92.9056 11.9566 94.1561 11.1055 96.0457 11.1055C97.9352 11.1055 99.1034 12.0016 99.1034 13.5442V18.4266H97.0142V17.523H96.8918C96.5574 18.1495 95.7761 18.5364 94.86 18.5364C93.4871 18.5364 92.5386 17.6852 92.5386 16.3698H92.5361ZM96.9867 15.8456V15.3563L95.7037 15.4412C94.9873 15.4936 94.6204 15.7632 94.6204 16.2275C94.6204 16.6918 95.0273 17.0088 95.6263 17.0088C96.3951 17.0088 96.9867 16.5046 96.9867 15.8481V15.8456Z" fill="#1D1D1B"/>
<path d="M102.973 17.3102H102.856V18.4259H100.759V8.57129H102.913V12.4228H103.035C103.385 11.629 104.171 11.1598 105.152 11.1598C106.959 11.1598 108.022 12.5201 108.022 14.849C108.022 17.1779 106.947 18.5382 105.152 18.5382C104.134 18.5382 103.332 18.0865 102.973 17.3127V17.3102ZM102.895 14.8515C102.903 16.0646 103.462 16.8184 104.361 16.8184C105.259 16.8184 105.811 16.0646 105.811 14.844C105.811 13.6234 105.257 12.8696 104.361 12.8696C103.465 12.8696 102.903 13.6359 102.895 14.849V14.8515Z" fill="#1D1D1B"/>
<path d="M109.353 8.57129H111.507V18.4259H109.353V8.57129Z" fill="#1D1D1B"/>
<path d="M119.781 16.3419C119.516 17.7222 118.234 18.5859 116.414 18.5859C114.162 18.5859 112.859 17.2305 112.859 14.8891C112.859 12.5478 114.195 11.1025 116.381 11.1025C118.568 11.1025 119.831 12.4429 119.831 14.7219V15.3334H114.986V15.4433C114.999 16.4242 115.568 17.0308 116.469 17.0308C117.158 17.0308 117.629 16.7787 117.804 16.3419H119.779H119.781ZM114.996 14.0654H117.737C117.697 13.1943 117.195 12.6651 116.389 12.6651C115.583 12.6651 115.053 13.2142 114.996 14.0654Z" fill="#1D1D1B"/>
<path d="M124.206 14.8396C124.206 12.5307 125.579 11.1055 127.81 11.1055C130.042 11.1055 131.422 12.5183 131.422 14.8396C131.422 17.161 130.074 18.5863 127.81 18.5863C125.546 18.5863 124.206 17.1935 124.206 14.8396ZM129.211 14.8471C129.211 13.5517 128.694 12.7779 127.81 12.7779C126.927 12.7779 126.41 13.5517 126.41 14.8471C126.41 16.1426 126.919 16.9164 127.81 16.9164C128.702 16.9164 129.211 16.1551 129.211 14.8471Z" fill="#1D1D1B"/>
<path d="M132.701 11.2677H134.798V12.4284H134.915C135.237 11.6222 136.083 11.1055 137.127 11.1055C138.719 11.1055 139.623 12.0864 139.623 13.8013V18.4266H137.469V14.2855C137.469 13.3819 137.029 12.8852 136.218 12.8852C135.407 12.8852 134.858 13.4593 134.858 14.323V18.4241H132.704V11.2652L132.701 11.2677Z" fill="#1D1D1B"/>
<path d="M147.258 9.6275V11.3573H148.735V12.9773H147.258V15.9826C147.258 16.5567 147.542 16.8263 148.149 16.8263C148.406 16.8263 148.543 16.8138 148.71 16.7938V18.3539C148.471 18.3988 148.084 18.4388 147.672 18.4388C145.835 18.4388 145.111 17.8721 145.111 16.4718V12.9748H143.995V11.3548H145.111V9.625H147.258V9.6275Z" fill="#1D1D1B"/>
<path d="M150.071 8.57129H152.181V12.4552H152.303C152.625 11.6365 153.503 11.1323 154.542 11.1323C156.122 11.1323 157.078 12.1008 157.078 13.8281V18.4259H154.924V14.3173C154.924 13.3938 154.439 12.912 153.633 12.912C152.827 12.912 152.228 13.4936 152.228 14.3498V18.4259H150.074V8.57129H150.071Z" fill="#1D1D1B"/>
<path d="M165.208 16.3419C164.943 17.7222 163.66 18.5859 161.841 18.5859C159.589 18.5859 158.286 17.2305 158.286 14.8891C158.286 12.5478 159.622 11.1025 161.808 11.1025C163.995 11.1025 165.258 12.4429 165.258 14.7219V15.3334H160.413V15.4433C160.425 16.4242 160.994 17.0308 161.896 17.0308C162.584 17.0308 163.056 16.7787 163.231 16.3419H165.205H165.208ZM160.423 14.0654H163.164C163.124 13.1943 162.622 12.6651 161.816 12.6651C161.009 12.6651 160.48 13.2142 160.423 14.0654Z" fill="#1D1D1B"/>
<path d="M71.4294 39.4808H64.4677L62.8552 44.3707H59.3682L66.0827 25.4502H69.8992L76.6138 44.3707H73.0468L71.4344 39.4808H71.4294ZM65.254 36.8699H70.6306L67.9947 28.7925H67.9024L65.254 36.8699Z" fill="#1D1D1B"/>
<path d="M91.7038 37.4216C91.7038 41.8547 89.4748 44.5955 85.9877 44.5955C83.9684 44.5955 82.3958 43.6245 81.6345 42.0644H81.5696V48.9487H78.3047V30.4725H81.4922V32.8712H81.5571C82.3434 31.2588 83.9184 30.2354 85.9378 30.2354C89.4648 30.2354 91.7063 32.9761 91.7063 37.4216H91.7038ZM88.359 37.4216C88.359 34.6809 87.0485 32.9237 84.9368 32.9237C82.8251 32.9237 81.5546 34.7209 81.5421 37.4216C81.5546 40.1499 82.905 41.9196 84.9368 41.9196C86.9687 41.9196 88.359 40.1749 88.359 37.4216Z" fill="#1D1D1B"/>
<path d="M107.201 37.4216C107.201 41.8547 104.972 44.5955 101.485 44.5955C99.4654 44.5955 97.8929 43.6245 97.1316 42.0644H97.0667V48.9487H93.8018V30.4725H96.9893V32.8712H97.0542C97.8405 31.2588 99.4155 30.2354 101.435 30.2354C104.962 30.2354 107.203 32.9761 107.203 37.4216H107.201ZM103.856 37.4216C103.856 34.6809 102.546 32.9237 100.434 32.9237C98.3222 32.9237 97.0517 34.7209 97.0367 37.4216C97.0492 40.1499 98.3996 41.9196 100.434 41.9196C102.468 41.9196 103.856 40.1749 103.856 37.4216Z" fill="#1D1D1B"/>
<path d="M113.135 39.0466C113.344 40.7913 115.089 41.9321 117.396 41.9321C119.702 41.9321 121.265 40.8038 121.265 39.2313C121.265 37.8684 120.294 37.0796 117.907 36.518L115.456 35.9414C111.969 35.1426 110.317 33.4628 110.317 30.762C110.317 27.4047 113.24 25.1357 117.358 25.1357C121.477 25.1357 124.282 27.3922 124.36 30.722H121.135C120.978 28.9523 119.495 27.8889 117.333 27.8889C115.172 27.8889 113.754 28.9373 113.754 30.5124C113.754 31.7704 114.71 32.5043 117.031 33.0559L119.208 33.5551C123.049 34.4337 124.674 36.0213 124.674 38.8394C124.674 42.4313 121.789 44.6878 117.213 44.6878C112.638 44.6878 110.002 42.5361 109.857 39.0491H113.135V39.0466Z" fill="#1D1D1B"/>
<path d="M131.059 27.2197V30.4722H133.683V32.9907H131.059V40.2145C131.059 41.3552 131.583 41.8794 132.736 41.8794C133.039 41.8794 133.458 41.8519 133.668 41.8145V44.3056C133.313 44.3855 132.672 44.4379 131.975 44.4379C128.972 44.4379 127.792 43.3745 127.792 40.6738V32.9907H125.8V30.4722H127.792V27.2197H131.057H131.059Z" fill="#1D1D1B"/>
<path d="M135.059 37.4213C135.059 32.9358 137.734 30.1826 141.786 30.1826C145.837 30.1826 148.513 32.9233 148.513 37.4213C148.513 41.9193 145.864 44.6476 141.786 44.6476C137.707 44.6476 135.059 41.9343 135.059 37.4213ZM145.195 37.4213C145.195 34.4709 143.857 32.7786 141.786 32.7786C139.714 32.7786 138.376 34.4709 138.376 37.4213C138.376 40.3717 139.714 42.0641 141.786 42.0641C143.857 42.0641 145.195 40.3867 145.195 37.4213Z" fill="#1D1D1B"/>
<path d="M150.608 30.4729H153.744V32.8991H153.808C154.28 31.2068 155.501 30.2383 157.138 30.2383C157.558 30.2383 157.924 30.3182 158.162 30.3706V33.321C157.887 33.2161 157.388 33.1363 156.836 33.1363C154.987 33.1363 153.873 34.3294 153.873 36.2839V44.3737H150.608V30.4754V30.4729Z" fill="#1D1D1B"/>
<path d="M171.575 40.2149C171.155 42.8383 168.717 44.648 165.424 44.648C161.256 44.648 158.737 41.9073 158.737 37.4767C158.737 33.0461 161.281 30.1855 165.295 30.1855C169.308 30.1855 171.707 32.9263 171.707 37.1472V38.208H161.992V38.4052C161.992 40.6343 163.355 42.1294 165.494 42.1294C167.014 42.1294 168.17 41.3681 168.522 40.2149H171.577H171.575ZM162.015 36.0589H168.505C168.44 34.092 167.179 32.7141 165.305 32.7141C163.43 32.7141 162.144 34.1169 162.015 36.0589Z" fill="#1D1D1B"/>
<path d="M32.7717 16.7364C33.2884 16.7214 36.0666 16.5966 38.1908 14.3002C40.592 11.7067 40.2002 8.46178 40.1378 8.02246C39.5711 8.08486 36.6806 8.46178 34.5939 11.0403C32.6519 13.4415 32.7343 16.1074 32.7717 16.7339V16.7364Z" fill="#1D1D1B"/>
<path d="M46.7274 20.3455C44.0866 22.1302 42.6563 25.2104 43.0432 28.2906C43.5699 32.4691 47.1643 34.4286 47.4962 34.6008C47.2167 35.9836 46.6151 37.9755 45.2223 39.9824C44.1265 41.5599 42.1546 44.3855 39.646 44.3456C37.9561 44.3181 37.3321 43.0102 34.7212 42.793C34.7112 42.793 34.6987 42.793 34.6887 42.7905C33.5355 42.7007 32.3723 42.9228 31.3314 43.4245C31.3314 43.4245 29.6266 44.1309 27.3676 44.1834C22.7698 44.2907 14.8022 28.373 20.1913 20.6875C20.6531 20.0285 21.9236 18.2163 24.1751 17.4625C27.6796 16.2893 32.3723 18.0865 32.7043 18.2638C33.0013 18.4235 33.3558 18.4235 33.6553 18.2688C35.0881 17.5224 39.1493 15.7776 43.2029 17.5973C44.8978 18.3586 46.036 19.4943 46.7274 20.3455Z" fill="#1D1D1B"/>
</svg>
