<svg width="212" height="43" viewBox="0 0 212 43" fill="none" xmlns="http://www.w3.org/2000/svg">
<mask id="mask0_678_7545" style="mask-type:luminance" maskUnits="userSpaceOnUse" x="2" y="2" width="40" height="40">
<path d="M21.7242 41.2481C32.5026 41.2481 41.2403 32.5231 41.2403 21.7603C41.2403 10.9975 32.5026 2.27246 21.7242 2.27246C10.9457 2.27246 2.20801 10.9975 2.20801 21.7603C2.20801 32.5231 10.9457 41.2481 21.7242 41.2481Z" fill="white"/>
</mask>
<g mask="url(#mask0_678_7545)">
<path d="M36.206 8.62124C36.5903 22.6878 24.1695 32.5292 8.95518 32.5292C7.65226 32.5292 6.40676 32.4543 5.15133 32.3098C4.79358 31.7486 4.46233 31.1687 4.15978 30.5711C4.00299 30.2624 3.85393 29.9481 3.7137 29.6306C3.6342 29.4498 3.55691 29.2679 3.48183 29.0848C3.35153 28.7651 3.22897 28.4398 3.11524 28.1113C2.42403 26.12 2.04199 23.9844 2.04199 21.7616C2.04199 10.908 10.8543 2.1084 21.7238 2.1084C26.8747 2.1084 30.9049 3.42706 34.1766 6.42714C34.4272 6.65648 34.6734 6.89573 34.9152 7.14601C35.0709 7.30699 35.2255 7.47127 35.3779 7.64106C35.6053 7.89355 35.8295 8.15486 36.0492 8.42609C36.1022 8.49004 36.513 9.07771 36.206 8.62124Z" fill="#23266E"/>
<path d="M41.4051 21.7606C41.4051 32.6142 32.5927 41.4138 21.7233 41.4138C17.9736 41.4138 14.4844 40.3663 11.512 38.5482C10.6485 38.0201 9.82814 37.4258 9.05743 36.7742C8.42585 36.2394 7.82849 35.6661 7.26758 35.0575C8.75489 35.2626 10.2444 35.3695 11.7991 35.3695C26.3266 35.3695 38.2925 26.0859 39.8714 14.144C40.5041 15.6457 40.9557 17.2422 41.1975 18.906C41.2914 19.5477 41.3532 20.1993 41.383 20.8598C41.3985 21.1586 41.4051 21.4585 41.4051 21.7606Z" fill="#23266E"/>
<path d="M39.9288 14.2075C38.3167 26.1185 26.3674 35.369 11.8664 35.369C10.3107 35.369 8.82224 35.2621 7.33493 35.057H7.33382C6.55207 34.2069 5.8443 33.2874 5.22266 32.3094C6.47589 32.4528 7.72028 32.5277 9.02099 32.5277C19.6464 32.5277 28.4256 27.0866 32.9604 19.4612C34.398 17.2385 36.2884 12.1535 35.9284 11.9197C35.913 11.9087 35.8942 11.9021 35.8732 11.8977C36.0841 10.8216 36.0852 9.79287 36.1382 8.68699C36.0863 8.62194 36.0974 8.77851 36.0455 8.71456C35.9715 8.62415 36.1205 8.4731 36.0455 8.38379C37.7437 10.1192 38.9682 11.9407 39.9288 14.2075Z" fill="white"/>
<mask id="mask1_678_7545" style="mask-type:luminance" maskUnits="userSpaceOnUse" x="2" y="3" width="35" height="27">
<path d="M3.03446 29.6547C3.03446 29.6547 15.0091 31.4386 25.9581 22.778C31.5087 18.3887 34.8532 15.1405 36.1782 12.6774C37.2084 10.7611 36.7734 9.11061 36.7734 9.11061C36.7734 9.11061 33.2621 4.73343 24.7512 3.47761C16.2403 2.22179 10.2855 7.07417 10.2855 7.07417C10.2855 7.07417 -0.907413 17.2078 3.03446 29.6547Z" fill="white"/>
</mask>
<g mask="url(#mask1_678_7545)">
<path d="M40.5638 6.00921C40.386 5.88021 39.6926 6.36313 39.6926 6.36313C39.6926 6.36313 37.7559 7.426 37.1596 7.684C36.5623 7.942 34.7713 9.26287 34.1099 10.2133C33.4485 11.1637 32.4802 12.5816 32.4802 12.5816L29.4304 16.2873C29.4304 16.2873 28.5913 16.2708 28.2368 16.2068C27.8824 16.1429 27.3657 16.0613 27.2851 16.2873C27.2044 16.5133 27.221 16.9477 27.1238 17.1253C27.0267 17.3028 26.8014 17.5277 26.7363 17.6247C26.6722 17.7217 25.8485 17.8177 25.6067 17.8507C25.3649 17.8827 24.8647 17.9632 24.8647 17.9632C24.8647 17.9632 24.8967 18.2366 24.8161 18.2852C24.7355 18.3337 24.1227 18.3337 23.7352 18.4781C23.3476 18.6236 22.154 18.8805 21.8636 18.8805C21.5732 18.8805 20.702 18.961 20.5077 18.9776C20.3144 18.9941 19.0071 19.1871 18.7653 18.9291C18.5235 18.6711 17.8941 17.8011 17.6192 17.5916C17.3453 17.3822 16.8606 17.5112 16.377 17.1242C16.006 16.8276 15.6549 16.5321 15.3866 16.338C15.5853 15.8264 15.6792 15.2476 15.762 14.7294C15.7708 14.6754 15.7774 14.6213 15.7841 14.5684C15.7841 14.5673 15.7841 14.5662 15.7841 14.5651C15.8702 13.8418 15.7564 13.2266 15.6781 12.919C15.7642 12.8815 15.8172 12.8264 15.7951 12.7426C15.7145 12.4361 15.6019 12.6136 15.4727 12.2431C15.3435 11.8726 15.2794 10.9057 15.0851 10.4062C14.8919 9.90677 14.2294 8.03793 11.6324 8.24741C9.03428 8.4569 8.6953 10.7613 8.80903 11.6146C8.80903 11.6146 8.40601 11.6786 8.27682 11.7436C8.14764 11.8076 8.08359 12.1306 8.40601 12.2266C8.72843 12.3236 8.74499 12.3071 8.76045 12.5651C8.77701 12.8231 8.67984 12.8716 8.76045 13.048C8.84105 13.2255 9.03428 13.0645 8.9868 13.2894C8.93822 13.5155 8.95478 13.6434 9.00336 13.9499C9.05195 14.2564 8.9868 14.3203 9.19659 14.4174C9.40639 14.5144 9.55103 14.4008 9.55103 14.5464C9.55103 14.6919 9.71224 15.0138 9.71224 15.0138L9.27609 15.0304C9.27609 15.0304 8.85651 14.7084 8.63016 14.9179C8.4038 15.1274 8.43693 15.4008 8.45238 15.7074C8.46895 16.0139 8.53299 16.3843 8.51643 16.5773C8.49986 16.7702 8.22603 16.8673 8.0328 17.0448C7.83957 17.2223 7.90361 17.4152 7.79099 17.9952C7.67836 18.5751 7.50059 18.8651 7.30736 20.0096C7.11414 21.154 7.06555 22.1684 7.46857 23.2158C7.87159 24.2633 8.04936 24.8597 8.46895 25.8741C8.88853 26.8896 9.29155 27.8554 9.37216 28.3714C9.45276 28.8874 9.11378 28.7253 9.08176 29.1774C9.04974 29.6283 9.30039 30.1124 9.3843 30.4178C9.46822 30.7243 9.29155 31.2712 9.48478 31.6747C9.67801 32.0771 9.92093 31.8357 9.63053 32.2866C9.34014 32.7376 8.96914 32.8831 8.90399 33.237C8.83995 33.591 8.87197 33.7045 9.09722 33.914C9.32357 34.1235 9.24297 34.1874 9.24297 34.1874C9.24297 34.1874 9.16236 35.4444 9.22641 36.0078C9.29045 36.5712 9.11378 37.1522 9.29045 37.5712C9.46822 37.9902 9.50024 37.6517 9.50024 38.4577C9.50024 39.2636 9.20984 40.4555 9.12924 41.1964C9.04864 41.9374 8.79026 42.6463 8.72622 42.9683C8.66218 43.2902 8.58047 43.3222 8.56501 43.7897C8.54845 44.2572 8.68316 44.0157 8.46232 44.7566C8.24149 45.4975 8.04826 46.126 7.95109 46.7225C7.85393 47.319 7.69272 47.3344 7.54807 47.3995C7.40232 47.4634 7.25768 47.577 7.25768 47.867C7.25768 48.1569 7.16051 48.3984 7.16051 48.3984L6.36993 48.9783C6.36993 48.9783 6.19216 48.8008 6.01549 48.9783C5.83772 49.1558 5.16086 49.5583 5.11228 49.7997C5.0637 50.0412 5.04824 50.3797 5.04824 50.3797C5.04824 50.3797 3.32132 53.6499 3.24072 54.7458C3.24072 54.7458 2.77255 55.0524 2.62791 55.1328C2.48216 55.2133 2.51528 55.4879 2.40155 55.7613C2.28893 56.0347 1.94995 56.4217 1.94995 56.4217C1.94995 56.4217 0.241801 58.6963 0.0154472 58.9698C-0.210907 59.2432 -0.242928 59.4373 -0.210907 59.6467C-0.178886 59.8562 -0.904324 59.7107 -0.63049 60.9191C-0.356657 62.1275 0.0154472 61.9985 0.0309055 62.4175C0.0474681 62.8365 -0.00111526 63.6579 0.321301 64.2058C0.643718 64.7538 1.66066 64.9468 2.64447 64.9468C3.62828 64.9468 3.98382 64.5598 3.70888 63.8023C3.43505 63.0448 3.01547 62.8354 3.09607 62.4329C3.17668 62.0305 3.64484 61.6755 3.64484 61.6755C3.64484 61.6755 3.93524 62.4649 4.33826 62.0459C4.74128 61.6269 6.1778 58.7746 7.79099 57.0667C9.40418 55.3589 10.1142 53.5871 10.9533 52.9255C11.7925 52.2651 11.6147 52.2651 11.6147 52.2651C11.6147 52.2651 12.2441 52.1846 12.4539 51.4756C12.4539 51.4756 13.1318 50.9442 13.1153 50.4282C13.1153 50.4282 13.4543 49.9927 13.4543 49.2683C13.4543 49.2683 14.0185 48.1889 14.3254 47.5439C14.6324 46.8989 15.0995 45.868 14.8897 45.481C14.6799 45.094 14.5187 45.191 14.5187 45.191L16.0998 42.7742C16.0998 42.7742 17.5198 44.836 18.9232 45.674C20.3266 46.5119 21.5213 47.3818 21.5699 47.4943C21.6185 47.6067 21.5699 47.6718 21.6825 47.7843C21.7951 47.8967 21.8757 48.0742 21.8757 48.2032C21.8757 48.3322 21.8757 49.0412 21.8757 49.0412C21.8757 49.0412 21.8437 49.1536 21.7951 49.4602C21.7466 49.7667 21.7951 50.7005 21.8757 50.91C21.9563 51.1195 22.2633 51.103 22.2633 51.103C22.2633 51.103 22.3273 51.4734 22.5371 52.1824C22.7469 52.8913 23.2471 54.0678 23.5695 54.6477C23.8919 55.2277 24.1183 55.5981 24.2309 56.0336C24.3436 56.4692 24.8437 57.3711 24.8117 57.725C24.7797 58.0789 24.5533 58.2244 24.5533 58.5464C24.5533 58.8683 24.6825 59.8353 24.6991 60.0282C24.7157 60.2212 24.4407 60.6082 24.3436 60.7692C24.2464 60.9301 24.1172 61.5751 24.4893 61.8805C24.8603 62.187 25.4411 62.541 25.9258 62.606C26.4094 62.67 26.6038 62.2995 26.9902 62.735C27.3778 63.1705 28.7812 63.7659 29.6369 64.0559C30.4916 64.3459 31.9446 64.1529 32.0252 63.7174C32.1058 63.2819 31.7183 63.0404 31.0889 62.606C30.4595 62.1705 29.701 61.5101 29.4106 61.3337C29.1202 61.1562 28.959 60.6567 28.959 60.6567C28.959 60.6567 30.9763 59.6743 30.6053 58.4328C30.2343 57.1924 29.6215 54.4206 29.2825 53.4702C28.9435 52.5198 28.3462 49.7325 28.2335 49.0721C28.1209 48.4116 27.8791 47.0907 27.9431 46.7677C28.0072 46.4457 27.9917 45.9617 27.8139 45.7688C27.6362 45.5758 27.5721 45.5593 27.5721 45.5593C27.5721 45.5593 27.6207 45.1083 27.475 44.9628C27.3292 44.8173 27.2486 44.7853 27.2486 44.7853C27.2486 44.7853 27.3458 44.1403 27.136 43.9639C26.9262 43.7864 26.6524 43.7544 26.6524 43.7544C26.6524 43.7544 25.9104 42.127 25.62 41.611C25.3296 41.095 25.249 40.0906 24.8614 39.8921C24.4738 39.6936 23.9902 39.8921 23.9902 39.8921C23.9902 39.8921 22.1021 36.1974 21.6991 35.7299C21.2961 35.2624 20.6501 34.0706 20.5695 33.8126C20.4889 33.5546 20.5375 33.0551 20.1013 32.7971C19.6652 32.5391 18.6173 31.9911 18.6173 31.8467C18.6173 31.7012 19.0855 31.5733 18.9718 31.1212C18.8592 30.6703 18.6648 30.4442 18.6648 29.8808C18.6648 29.3174 18.5677 28.7364 18.4385 28.6085C18.3093 28.4795 18.1967 28.4629 18.1161 28.012C18.0354 27.561 18.2618 25.5786 18.1801 24.8057C18.0995 24.0328 18.1161 22.8398 18.1161 22.8398C18.1161 22.8398 19.4874 22.8884 20.0848 22.7759C20.6821 22.6634 21.0852 22.4859 21.0852 22.4859C21.0852 22.4859 21.7951 23.5168 22.3119 23.7583C22.8286 23.9997 23.8931 23.2103 24.2806 23.2268C24.6682 23.2434 25.0072 23.5808 25.1363 23.6624C25.2655 23.7428 25.0237 23.7748 25.3296 23.9689C25.6365 24.1618 26.0881 24.0494 26.5077 24.0494C26.9273 24.0494 27.5401 23.9854 27.5721 23.7594C27.6042 23.5334 27.5721 23.4694 27.5721 23.4694C27.5721 23.4694 27.9266 23.3404 27.9266 23.196C27.9266 23.0504 27.9431 22.9865 27.9431 22.9865C27.9431 22.9865 28.4599 22.7131 28.4599 22.5036C28.4599 22.2941 28.4599 22.2941 28.4599 22.2941C28.4599 22.2941 28.8143 21.8112 28.8309 21.6656C28.8474 21.5201 29.6866 21.3756 29.977 20.6832C29.977 20.6832 30.6064 20.5708 30.8482 19.6358C30.8482 19.6358 31.9126 18.9268 31.3318 18.4274C31.3318 18.4274 31.0249 18.1374 30.8482 18.1374C30.6704 18.1374 30.8968 17.896 30.8968 17.5894C30.8968 17.2829 30.8482 17.0734 30.6384 16.993L34.8011 12.5617C34.8011 12.5617 35.7076 11.6036 37.0238 11.7348C39.2608 11.9575 40.5616 7.09523 40.5616 6.95521C40.5638 6.71816 40.7415 6.13821 40.5638 6.00921ZM15.5997 14.7051C15.5643 14.9234 15.5279 15.1528 15.4815 15.3821L15.4219 14.725C15.4937 14.7051 15.5555 14.6875 15.603 14.6743C15.603 14.6842 15.6019 14.6952 15.5997 14.7051ZM15.5191 12.9653C15.5908 13.2542 15.6979 13.8275 15.6273 14.4956C15.5809 14.5089 15.5058 14.5309 15.4075 14.5574L15.2651 12.9895C15.3479 12.9873 15.4373 12.9796 15.5191 12.9653ZM14.6501 14.3876C14.7307 14.2101 14.8433 14.3556 14.8919 13.9852C14.9405 13.6147 14.9725 13.4372 14.9725 13.3247C14.9725 13.2123 14.9725 12.9862 14.9725 12.9862C14.9725 12.9862 15.0244 12.9895 15.1006 12.9917C15.1006 12.994 15.0995 12.9973 15.0995 12.9995L15.2441 14.6026C15.0531 14.6533 14.8135 14.7151 14.5496 14.7757C14.586 14.6026 14.6225 14.4493 14.6501 14.3876ZM14.4248 15.4835C14.4248 15.4835 14.4657 15.2233 14.5165 14.9532C14.798 14.8893 15.0564 14.8242 15.2607 14.7691L15.3435 15.6864C15.2309 15.7294 15.0376 15.7967 14.7748 15.8617C14.5871 15.6732 14.4248 15.4835 14.4248 15.4835ZM15.2463 16.2432C15.2187 16.2256 15.1911 16.2068 15.1668 16.1925C15.0928 16.1495 15.0056 16.0778 14.9173 15.9973C15.1072 15.9466 15.2563 15.8959 15.3601 15.8573L15.3634 15.8893C15.3291 16.0095 15.2905 16.1285 15.2463 16.2432Z" fill="white"/>
</g>
<path d="M10.9699 29.8039C10.9313 29.4236 10.589 29.1457 10.208 29.1854C9.45167 29.2626 8.67545 29.31 7.91467 29.3243C7.53263 29.332 7.22678 29.6474 7.2334 30.0311C7.24113 30.4137 7.55692 30.718 7.94117 30.7113C8.33426 30.7047 8.73617 30.6893 9.13036 30.665C9.5367 30.6408 9.94634 30.6077 10.3494 30.5658C10.7325 30.5261 11.0097 30.1865 10.9699 29.8039ZM5.61911 29.2703C5.00188 29.2295 4.10972 29.1678 3.48145 29.0829C3.55653 29.267 3.63272 29.4489 3.71332 29.6286C3.85465 29.9462 4.00261 30.2604 4.1594 30.5691C4.55801 30.6033 5.19511 30.6309 5.52857 30.6529C5.55728 30.6551 5.58709 30.6551 5.6158 30.654C5.9614 30.6331 6.24407 30.3596 6.26726 30.0068C6.29265 29.6264 6.00226 29.2957 5.61911 29.2703ZM15.5721 28.8171C15.4694 28.4489 15.0862 28.2328 14.7163 28.3353C13.9832 28.5393 13.2301 28.7157 12.4804 28.8557C12.1039 28.9274 11.8554 29.2901 11.9272 29.6661C11.9935 30.0134 12.307 30.2516 12.6504 30.2306C12.6792 30.2295 12.709 30.2251 12.7377 30.2196C13.526 30.0708 14.3177 29.8877 15.0884 29.6716C15.4594 29.5691 15.6748 29.1865 15.5721 28.8171ZM19.9402 27.0641C19.7756 26.7179 19.3616 26.5701 19.0149 26.7333C18.3248 27.0608 17.6137 27.3607 16.9004 27.6264C16.5415 27.7598 16.3582 28.16 16.4929 28.5183C16.6012 28.8105 16.8882 28.9869 17.1842 28.9693C17.2515 28.9649 17.32 28.9517 17.3862 28.9263C18.1382 28.6473 18.8857 28.3309 19.61 27.988C19.9567 27.8237 20.1036 27.4103 19.9402 27.0641ZM23.9439 24.5965C23.723 24.2823 23.2902 24.2073 22.9766 24.4278C22.3528 24.8656 21.7035 25.2823 21.0443 25.6649C20.7131 25.859 20.6015 26.2834 20.7948 26.6131C20.9306 26.8469 21.1834 26.9715 21.4363 26.9571C21.5412 26.9516 21.6472 26.9196 21.7444 26.8634C22.4356 26.461 23.1191 26.0221 23.7749 25.5624C24.0885 25.3419 24.1647 24.9097 23.9439 24.5965ZM27.475 21.4873C27.2045 21.2161 26.765 21.215 26.4923 21.484C25.9512 22.0209 25.3804 22.5413 24.7963 23.0309C24.5015 23.2768 24.4639 23.7145 24.7102 24.0078C24.857 24.1831 25.0723 24.2669 25.2843 24.2547C25.429 24.2459 25.5703 24.193 25.6896 24.0938C26.3024 23.58 26.903 23.0331 27.4717 22.4686C27.7444 22.1984 27.7455 21.7585 27.475 21.4873ZM30.433 17.8301C30.1206 17.6074 29.6877 17.6801 29.4647 17.9922C29.0219 18.6129 28.546 19.2204 28.0525 19.8004C27.804 20.0926 27.8405 20.5303 28.1331 20.7783C28.2744 20.8996 28.4522 20.9526 28.6244 20.9426C28.8066 20.9316 28.9855 20.85 29.1125 20.7001C29.6325 20.0903 30.1316 19.4498 30.5965 18.7992C30.8173 18.4861 30.7444 18.0528 30.433 17.8301ZM32.733 13.7263C32.3874 13.5588 31.9723 13.7043 31.8055 14.0483C31.4732 14.733 31.1077 15.4133 30.719 16.0693C30.5236 16.399 30.6329 16.8246 30.9619 17.0197C31.0856 17.0936 31.2236 17.1233 31.3572 17.1156C31.5803 17.1024 31.7923 16.9833 31.9137 16.7771C32.3234 16.088 32.7076 15.3725 33.0565 14.6525C33.2222 14.3085 33.0786 13.8928 32.733 13.7263ZM34.3032 9.29294C33.9344 9.18709 33.549 9.39988 33.443 9.76814C33.2321 10.4991 32.9881 11.2312 32.7154 11.9424C32.5784 12.3007 32.7573 12.7021 33.1162 12.8388C33.2111 12.8741 33.3105 12.8884 33.4055 12.8829C33.6694 12.8674 33.9123 12.701 34.0139 12.4374C34.2998 11.6888 34.5571 10.9192 34.779 10.1496C34.885 9.78248 34.6708 9.39878 34.3032 9.29294ZM34.9149 7.14514C34.673 6.89596 34.4268 6.6556 34.1762 6.42627C34.1188 6.80004 34.0547 7.1716 33.9818 7.53986C33.9079 7.91583 34.153 8.28078 34.5295 8.35465C34.588 8.36568 34.6477 8.37009 34.7051 8.36678C35.0131 8.34804 35.2814 8.12532 35.3444 7.80778C35.3554 7.75265 35.3665 7.69642 35.3764 7.64019C35.2251 7.4704 35.0717 7.30612 34.9149 7.14514Z" fill="#F05A28"/>
<path d="M39.5172 23.2732C39.1826 23.0857 38.7586 23.2059 38.572 23.54C38.1999 24.2048 37.7936 24.8609 37.3662 25.4915C37.1509 25.8091 37.2348 26.2402 37.5517 26.4552C37.671 26.5357 37.8068 26.5743 37.9404 26.5743C38.1634 26.5743 38.3821 26.4673 38.5168 26.2688C38.9662 25.6051 39.3935 24.9149 39.7844 24.2159C39.971 23.8829 39.8517 23.4606 39.5172 23.2732ZM36.9754 27.2314C36.6772 26.991 36.24 27.0373 35.9993 27.335C35.5201 27.9271 35.0088 28.5059 34.4811 29.0561C34.2161 29.3329 34.2249 29.7717 34.502 30.0363C34.6367 30.1653 34.8101 30.2293 34.9823 30.2293C35.1645 30.2293 35.3478 30.1576 35.4836 30.0154C36.039 29.4376 36.5757 28.8279 37.0792 28.2061C37.3199 27.9095 37.2735 27.4728 36.9754 27.2314ZM33.8031 30.7067C33.5502 30.4189 33.1108 30.3913 32.8226 30.6449C32.2506 31.1488 31.65 31.6339 31.0372 32.0871C30.7291 32.3153 30.6651 32.7497 30.8925 33.0573C31.0283 33.2415 31.2381 33.3385 31.4512 33.3385C31.5959 33.3385 31.7405 33.2933 31.8642 33.2018C32.5068 32.7255 33.1395 32.215 33.7413 31.6868C34.0294 31.4322 34.0571 30.9933 33.8031 30.7067ZM30.092 33.5987C29.891 33.2723 29.4626 33.1709 29.1358 33.3727C28.4865 33.7718 27.813 34.15 27.1328 34.4929C26.7905 34.666 26.6536 35.0838 26.827 35.4245C26.9495 35.666 27.1936 35.806 27.4475 35.806C27.5524 35.806 27.6595 35.7818 27.76 35.7311C28.4744 35.3705 29.1833 34.9736 29.8645 34.5535C30.1925 34.3517 30.2941 33.9239 30.092 33.5987ZM25.9469 35.8226C25.8034 35.4675 25.3993 35.2944 25.0437 35.4378C24.336 35.7222 23.6072 35.9791 22.8796 36.2029C22.513 36.3143 22.3065 36.7035 22.4191 37.0685C22.5108 37.3673 22.7857 37.5591 23.0827 37.5591C23.1501 37.5591 23.2186 37.5492 23.287 37.5282C24.0533 37.2945 24.8196 37.0233 25.5638 36.7245C25.9182 36.5822 26.0905 36.1787 25.9469 35.8226ZM21.4828 37.3121C21.4022 36.9373 21.0323 36.7002 20.658 36.7796C19.9127 36.9395 19.1519 37.0696 18.3945 37.1655C18.0135 37.214 17.7452 37.5613 17.7927 37.9406C17.8379 38.2912 18.1372 38.547 18.4817 38.547C18.5104 38.547 18.5402 38.5448 18.57 38.5415C19.3661 38.4401 20.1666 38.3033 20.9495 38.1357C21.3249 38.0553 21.5634 37.687 21.4828 37.3121ZM11.521 37.1699C10.7647 37.0751 10.0028 36.9461 9.25747 36.7862C9.19012 36.7719 9.12276 36.7675 9.05762 36.7741C9.82722 37.4257 10.6476 38.0189 11.5122 38.5481C11.8236 38.5128 12.0819 38.2692 12.1239 37.9461C12.1714 37.5646 11.902 37.2184 11.521 37.1699ZM16.1066 37.3595C15.347 37.3915 14.5696 37.3915 13.8088 37.3606C13.4257 37.3452 13.1022 37.6418 13.0867 38.0255C13.0713 38.4081 13.3683 38.7311 13.7525 38.7466C14.1456 38.7631 14.5475 38.7708 14.9428 38.7708C15.3492 38.7708 15.761 38.762 16.1662 38.7455C16.5494 38.7289 16.8475 38.4059 16.831 38.0233C16.8144 37.6407 16.4909 37.343 16.1066 37.3595ZM41.3843 20.8597C41.2231 21.2654 41.052 21.6689 40.872 22.0648C40.756 22.3206 40.5032 22.4727 40.2393 22.4727C40.1432 22.4727 40.0461 22.4518 39.9533 22.411C39.6044 22.2533 39.4487 21.8421 39.6077 21.4925C39.9224 20.7979 40.2106 20.0824 40.4645 19.3646C40.5738 19.0537 40.8841 18.8695 41.1999 18.9059L41.3843 20.8597Z" fill="#00AE51"/>
</g>
<mask id="mask2_678_7545" style="mask-type:luminance" maskUnits="userSpaceOnUse" x="2" y="2" width="40" height="40">
<path d="M21.7242 41.2481C32.5026 41.2481 41.2403 32.5231 41.2403 21.7603C41.2403 10.9975 32.5026 2.27246 21.7242 2.27246C10.9457 2.27246 2.20801 10.9975 2.20801 21.7603C2.20801 32.5231 10.9457 41.2481 21.7242 41.2481Z" fill="white"/>
</mask>
<g mask="url(#mask2_678_7545)">
<path opacity="0.44" d="M-14.0156 1.10798L77.4911 -11.0312L83.2935 32.5851L35.7271 38.8951C32.7602 18.491 16.1789 5.89532 -14.0156 1.10798Z" fill="url(#paint0_linear_678_7545)"/>
</g>
<path d="M124.468 25.5738L126.633 30.4328H121.432C121.387 30.3953 121.367 30.3424 121.341 30.2928C120.584 28.8992 120.04 27.2266 119.32 25.791C119.272 25.694 119.245 25.5617 119.116 25.5705L112.944 25.5893L111.941 30.4317H106.722L110.163 13.1545L127.119 13.1523C128.751 13.3089 129.846 14.7224 129.729 16.3365C129.207 18.6133 128.922 21.0335 128.348 23.2893C128.063 24.4073 127.046 25.5716 125.803 25.5716H124.468V25.5738ZM123.83 17.2054H111.785L114.412 18.018L113.719 21.4855H123.095C123.237 21.4855 123.558 21.2419 123.568 21.0699C123.685 20.0434 124.111 18.8857 124.193 17.8746C124.212 17.6254 124.105 17.266 123.83 17.2054Z" fill="white"/>
<path d="M66.5698 13.1555L65.7583 17.2052H49.6739L52.3448 18.0399L50.8056 25.7964C50.7946 26.1151 51.0817 26.3808 51.393 26.3852L58.8307 26.3576C59.0416 26.2793 59.1763 26.1294 59.2359 25.9133L59.6887 23.5296H57.3876C56.9945 23.5296 56.4247 23.137 56.1918 22.8316C55.5602 22.0014 56.0063 21.0367 56.1388 20.1237L56.1884 20.0576H65.6037L65.5926 20.2593C65.0946 22.3895 64.8197 24.6145 64.3151 26.7369C63.858 28.6598 62.4237 30.0942 60.4373 30.3886C56.0449 30.4514 51.6249 30.4779 47.2359 30.3754C46.008 30.1449 45.1931 29.0545 45.1865 27.8262L47.7681 15.0133C47.9646 14.1875 49.198 13.1533 50.0404 13.1533H66.5698V13.1555Z" fill="white"/>
<path d="M69.9223 13.1668L83.2109 13.1558C84.6762 13.3333 85.7991 14.588 85.7847 16.0687L83.3092 28.5255C82.9802 29.4858 82.1079 30.1948 81.113 30.3844C76.703 30.498 72.2753 30.3988 67.8586 30.434C66.082 30.3161 64.9381 28.7978 65.139 27.0624L67.5726 15.104C67.9061 14.0621 68.8303 13.3057 69.9223 13.1668ZM79.8476 17.2055H69.5049L72.1748 18.0412L70.6698 25.6754C70.5682 25.9279 70.8509 26.3843 71.1093 26.3843H81.4134L78.707 25.5739L80.2496 17.8361C80.307 17.6112 80.063 17.2485 79.8476 17.2055Z" fill="white"/>
<path d="M192.208 13.1558L191.397 17.2055H177.632L180.298 18.0181L179.952 19.9046H189.154L188.415 23.6797L179.202 23.6886L179.147 23.7492L178.753 25.8253C178.732 26.0326 179.051 26.3843 179.236 26.3843H189.541L188.765 30.4318L175.987 30.4351C174.299 30.3271 173.148 28.9599 173.224 27.2906L176.047 13.1558H192.208Z" fill="white"/>
<path d="M108.228 18.9021H103.009C103.039 18.4831 103.408 17.7775 103.124 17.418C103.083 17.3651 102.883 17.2052 102.835 17.2052H92.5311L95.1988 18.0156L93.6563 25.7137C93.5878 26.0875 93.8826 26.3808 94.2492 26.3852L101.046 26.3742C101.135 26.3532 101.214 26.3223 101.288 26.2683C101.603 26.0346 101.655 25.0334 101.732 24.6487H106.99C106.695 25.7964 106.563 27.0126 106.276 28.1581C105.942 29.4878 104.994 30.3258 103.609 30.4349H90.4597C88.9613 30.3324 87.9035 29.092 88.0449 27.5991L90.6065 14.9968C90.9555 13.9957 91.8896 13.2878 92.9408 13.1599L106.122 13.1533C107.311 13.2514 108.344 14.1015 108.663 15.2471C108.987 16.4059 108.386 17.7411 108.228 18.9021Z" fill="white"/>
<path d="M155.09 18.9022H149.87C149.872 18.4534 150.275 17.7875 149.965 17.3994C149.937 17.363 149.717 17.2053 149.696 17.2053H139.353L142.024 18.04L140.484 25.7965C140.503 26.0413 140.661 26.2938 140.907 26.3577L147.869 26.3743C148.543 26.2761 148.425 25.1592 148.594 24.6487H153.813C153.56 25.8241 153.402 27.0821 153.106 28.2431C152.779 29.5199 151.785 30.327 150.471 30.4361H137.322C135.873 30.3369 134.868 29.2332 134.868 27.7933L137.361 15.3155C137.618 14.1667 138.632 13.2901 139.803 13.1611L153.127 13.1666C154.569 13.3695 155.623 14.6209 155.631 16.0664L155.09 18.9022Z" fill="white"/>
<path d="M162.244 13.1558L161.065 19.2496L169.416 13.1558H175.506L166.191 20.3489L172.916 30.434H166.807L162.147 23.4537L157.411 27.1363L159.653 26.0756L158.802 30.434H153.583L157.024 13.1558H162.244Z" fill="white"/>
<path d="M211.117 13.1558L210.305 17.2055H201.721L204.392 18.0401L201.915 30.434H196.114L198.743 17.2055H192.674L193.504 13.1558H211.117Z" fill="white"/>
<path d="M136.415 13.1558L135.603 17.2055H132.78L135.414 18.0721L132.973 30.434H127.754L131.196 13.1558H136.415Z" fill="white"/>
<defs>
<linearGradient id="paint0_linear_678_7545" x1="48.7217" y1="-17.4792" x2="15.892" y2="62.7731" gradientUnits="userSpaceOnUse">
<stop stopColor="white"/>
<stop offset="0.1023" stopColor="white"/>
<stop offset="0.406" stopColor="white" stop-opacity="0.4"/>
<stop offset="0.6071" stopColor="white" stop-opacity="0.4"/>
<stop offset="1" stopColor="white" stop-opacity="0"/>
</linearGradient>
</defs>
</svg>
