<svg width="192" height="57" viewBox="0 0 192 57" fill="none" xmlns="http://www.w3.org/2000/svg">
<path d="M184.404 0.00292969H6.93392C3.10604 0.00292969 0.00292969 3.10604 0.00292969 6.93392V50.0414C0.00292969 53.8692 3.10604 56.9724 6.93392 56.9724H184.404C188.231 56.9724 191.334 53.8692 191.334 50.0414V6.93392C191.334 3.10604 188.231 0.00292969 184.404 0.00292969Z" fill="white"/>
<path d="M183.85 0.274121C187.828 0.274121 191.065 3.51076 191.065 7.48929V49.4852C191.065 53.4637 187.828 56.7003 183.85 56.7003H7.48678C3.50825 56.7003 0.271606 53.4637 0.271606 49.4852V7.48678C0.271606 3.50825 3.50825 0.271606 7.48678 0.271606H183.847M183.85 0.00251493H7.48678C3.35233 0.00251493 0 3.35484 0 7.48929V49.4852C0 53.6196 3.35233 56.9719 7.48678 56.9719H183.847C187.982 56.9719 191.334 53.6196 191.334 49.4852V7.48678C191.334 3.35233 187.982 0 183.847 0L183.85 0.00251493Z" fill="#1D1D1B"/>
<path d="M62.572 13.4155H66.7417C66.7568 13.5186 66.7744 13.6293 66.7895 13.745C66.8046 13.8607 66.8121 13.9814 66.8121 14.1096C66.8121 14.6202 66.7316 15.1256 66.5732 15.6261C66.4148 16.1291 66.1431 16.5742 65.7609 16.964C65.3711 17.3714 64.9134 17.6858 64.3878 17.9071C63.8622 18.1309 63.2611 18.2416 62.5821 18.2416C61.9685 18.2416 61.39 18.1309 60.8443 17.9071C60.2986 17.6833 59.8233 17.3739 59.4159 16.9741C59.0085 16.5767 58.6891 16.1039 58.4527 15.5582C58.2188 15.0125 58.1006 14.4164 58.1006 13.7726C58.1006 13.1288 58.2188 12.5328 58.4527 11.9871C58.6865 11.4414 59.0085 10.9686 59.4159 10.5712C59.8233 10.1739 60.2986 9.86201 60.8443 9.63819C61.39 9.41436 61.971 9.30371 62.5821 9.30371C63.236 9.30371 63.8395 9.41939 64.3928 9.65076C64.9461 9.88213 65.4113 10.204 65.786 10.619L64.843 11.5621C64.5638 11.2502 64.2344 11.0113 63.8571 10.8453C63.4774 10.6768 63.0499 10.5938 62.572 10.5938C62.1646 10.5938 61.7748 10.6693 61.4001 10.8202C61.0254 10.9711 60.6959 11.1848 60.4092 11.459C60.1225 11.7331 59.8962 12.0676 59.7277 12.4574C59.5592 12.8472 59.4762 13.2848 59.4762 13.7726C59.4762 14.2605 59.5592 14.6981 59.7277 15.0879C59.8937 15.4777 60.1225 15.8122 60.4092 16.0863C60.6959 16.3604 61.0254 16.5742 61.4001 16.7251C61.7748 16.876 62.1697 16.9514 62.5821 16.9514C63.1328 16.9514 63.5755 16.8684 63.915 16.7C64.2545 16.5315 64.5387 16.3378 64.77 16.114C64.9385 15.9556 65.0844 15.7443 65.2126 15.4853C65.3409 15.2262 65.4239 14.9421 65.4641 14.6302H62.572V13.4105V13.4155Z" fill="#1D1D1B"/>
<path d="M69.5028 10.7852V13.1392H72.9809V14.4067H69.5028V16.7606H73.3632V18.0507H68.1523V9.49512H73.3632V10.7852H69.5028Z" fill="#1D1D1B"/>
<path d="M76.6635 18.0527V10.7872H74.2744V9.49707H80.4057V10.7872H78.0165V18.0527H76.6661H76.6635Z" fill="#1D1D1B"/>
<path d="M84.1797 9.49512H85.5302V18.0507H84.1797V9.49512Z" fill="#1D1D1B"/>
<path d="M89.0659 18.0527V10.7872H86.6768V9.49707H92.808V10.7872H90.4189V18.0527H89.0684H89.0659Z" fill="#1D1D1B"/>
<path d="M100.36 18.2441C99.7207 18.2441 99.1348 18.1284 98.5966 17.897C98.0584 17.6657 97.5906 17.3488 97.1933 16.9464C96.7959 16.544 96.4841 16.0712 96.2603 15.5255C96.0364 14.9798 95.9258 14.3963 95.9258 13.7752C95.9258 13.154 96.0364 12.573 96.2603 12.0298C96.4841 11.4891 96.7934 11.0138 97.1933 10.6064C97.5906 10.199 98.0609 9.88213 98.5966 9.65076C99.1348 9.41939 99.7207 9.30371 100.36 9.30371C100.998 9.30371 101.574 9.41939 102.117 9.65076C102.658 9.88213 103.128 10.2015 103.528 10.6064C103.926 11.0138 104.237 11.4866 104.461 12.0298C104.685 12.5705 104.796 13.154 104.796 13.7752C104.796 14.3963 104.685 14.9798 104.461 15.5255C104.237 16.0712 103.928 16.5465 103.528 16.9464C103.128 17.3488 102.661 17.6657 102.117 17.897C101.577 18.1284 100.991 18.2441 100.36 18.2441ZM100.36 16.954C100.782 16.954 101.179 16.8785 101.554 16.7276C101.929 16.5767 102.253 16.3604 102.527 16.0813C102.801 15.8021 103.02 15.4677 103.179 15.0779C103.337 14.6881 103.418 14.253 103.418 13.7752C103.418 13.2973 103.337 12.8623 103.179 12.4725C103.02 12.0826 102.801 11.7482 102.527 11.469C102.253 11.1899 101.929 10.9761 101.554 10.8227C101.179 10.6718 100.782 10.5964 100.36 10.5964C99.937 10.5964 99.5397 10.6718 99.1649 10.8227C98.7902 10.9736 98.4658 11.1899 98.1917 11.469C97.9176 11.7482 97.6988 12.0826 97.5403 12.4725C97.3819 12.8623 97.3014 13.2973 97.3014 13.7752C97.3014 14.253 97.3819 14.6881 97.5403 15.0779C97.6988 15.4677 97.9176 15.8021 98.1917 16.0813C98.4658 16.3604 98.7902 16.5742 99.1649 16.7276C99.5397 16.8785 99.937 16.954 100.36 16.954Z" fill="#1D1D1B"/>
<path d="M106.097 9.49512H107.711L111.511 15.6968H111.584L111.511 14.047V9.49512H112.849V18.0507H111.438L107.447 11.5372H107.377L107.447 13.187V18.0507H106.097V9.49512Z" fill="#1D1D1B"/>
<path d="M66.6971 32.3177H75.2074C75.2401 32.539 75.2728 32.7728 75.3055 33.0193C75.3382 33.2658 75.3532 33.5248 75.3532 33.7989C75.3532 34.8879 75.1898 35.9692 74.8654 37.0406C74.5409 38.1119 73.9877 39.0651 73.2081 39.9C72.4108 40.7676 71.4778 41.4416 70.404 41.9169C69.3301 42.3922 68.1029 42.6312 66.7222 42.6312C65.4698 42.6312 64.2878 42.3922 63.1737 41.9169C62.0596 41.4416 61.0889 40.7777 60.259 39.9251C59.4291 39.0751 58.7752 38.0667 58.2974 36.8998C57.817 35.7354 57.5781 34.4628 57.5781 33.0822C57.5781 31.7015 57.817 30.4315 58.2974 29.2646C58.7777 28.1002 59.4316 27.0917 60.259 26.2392C61.0889 25.3892 62.0596 24.7253 63.1737 24.2474C64.2878 23.7721 65.4698 23.5332 66.7222 23.5332C68.0551 23.5332 69.2874 23.7797 70.4166 24.2726C71.5457 24.7655 72.4938 25.4546 73.2584 26.3398L71.332 28.3567C70.7636 27.6928 70.0921 27.1823 69.3201 26.8252C68.548 26.4681 67.6753 26.2895 66.6996 26.2895C65.8697 26.2895 65.075 26.4505 64.3104 26.7749C63.5459 27.0993 62.8719 27.5545 62.286 28.1404C61.7 28.7264 61.2373 29.4381 60.8952 30.2731C60.5532 31.108 60.3822 32.0435 60.3822 33.0822C60.3822 34.1208 60.5532 35.0564 60.8952 35.8913C61.2373 36.7262 61.7 37.4354 62.286 38.0239C62.8719 38.6099 63.5459 39.0676 64.3104 39.3895C65.075 39.7139 65.8797 39.8748 66.7247 39.8748C67.8464 39.8748 68.7517 39.6963 69.4433 39.3392C70.1349 38.9821 70.7158 38.5646 71.1861 38.0893C71.5281 37.7498 71.8274 37.3021 72.0889 36.7489C72.348 36.1956 72.519 35.587 72.602 34.9231H66.7021V32.3202L66.6971 32.3177Z" fill="#1D1D1B"/>
<path d="M82.5503 29.5234C83.4305 29.5234 84.2403 29.6844 84.9772 30.0038C85.7166 30.3257 86.3528 30.7733 86.886 31.3492C87.4191 31.9251 87.8366 32.6067 88.1359 33.3989C88.4351 34.1885 88.5835 35.0436 88.5835 35.9665C88.5835 36.8895 88.4351 37.7446 88.1359 38.5342C87.8366 39.3239 87.4216 40.0079 86.886 40.5839C86.3528 41.1598 85.7141 41.6074 84.9772 41.9293C84.2378 42.2512 83.428 42.4096 82.5503 42.4096C81.6727 42.4096 80.8603 42.2487 80.121 41.9293C79.3816 41.6074 78.7453 41.1598 78.2122 40.5839C77.6765 40.0079 77.2616 39.3264 76.9623 38.5342C76.663 37.7446 76.5146 36.8895 76.5146 35.9665C76.5146 35.0436 76.663 34.1885 76.9623 33.3989C77.2616 32.6092 77.6765 31.9277 78.2122 31.3492C78.7453 30.7733 79.3816 30.3257 80.121 30.0038C80.8603 29.6819 81.6676 29.5234 82.5503 29.5234ZM82.5503 39.8646C82.9904 39.8646 83.4155 39.7741 83.8229 39.593C84.2303 39.4119 84.5975 39.1579 84.9194 38.8285C85.2413 38.499 85.4978 38.0916 85.6864 37.6062C85.875 37.1209 85.9681 36.5751 85.9681 35.964C85.9681 35.3529 85.875 34.8072 85.6864 34.3218C85.4978 33.8364 85.2413 33.429 84.9194 33.0996C84.5975 32.7701 84.2328 32.5161 83.8229 32.3351C83.4129 32.154 82.9904 32.0635 82.5503 32.0635C82.1102 32.0635 81.6852 32.154 81.2778 32.3351C80.8679 32.5161 80.5032 32.7701 80.1813 33.0996C79.8594 33.429 79.6029 33.8364 79.4143 34.3218C79.2257 34.8072 79.1326 35.3554 79.1326 35.964C79.1326 36.5726 79.2257 37.1209 79.4143 37.6062C79.6029 38.0916 79.8569 38.499 80.1813 38.8285C80.5032 39.1579 80.8679 39.4119 81.2778 39.593C81.6852 39.7741 82.1102 39.8646 82.5503 39.8646Z" fill="#1D1D1B"/>
<path d="M95.9273 29.5234C96.8075 29.5234 97.6173 29.6844 98.3541 30.0038C99.0935 30.3257 99.7298 30.7733 100.263 31.3492C100.796 31.9251 101.214 32.6067 101.513 33.3989C101.812 34.1885 101.96 35.0436 101.96 35.9665C101.96 36.8895 101.812 37.7446 101.513 38.5342C101.214 39.3239 100.799 40.0079 100.263 40.5839C99.7298 41.1598 99.091 41.6074 98.3541 41.9293C97.6148 42.2512 96.805 42.4096 95.9273 42.4096C95.0496 42.4096 94.2373 42.2487 93.4979 41.9293C92.7586 41.6074 92.1223 41.1598 91.5891 40.5839C91.0535 40.0079 90.6385 39.3264 90.3392 38.5342C90.04 37.7446 89.8916 36.8895 89.8916 35.9665C89.8916 35.0436 90.04 34.1885 90.3392 33.3989C90.6385 32.6092 91.0535 31.9277 91.5891 31.3492C92.1223 30.7733 92.7586 30.3257 93.4979 30.0038C94.2373 29.6819 95.0446 29.5234 95.9273 29.5234ZM95.9273 39.8646C96.3674 39.8646 96.7924 39.7741 97.1998 39.593C97.6072 39.4119 97.9744 39.1579 98.2963 38.8285C98.6182 38.499 98.8747 38.0916 99.0633 37.6062C99.252 37.1209 99.345 36.5751 99.345 35.964C99.345 35.3529 99.252 34.8072 99.0633 34.3218C98.8747 33.8364 98.6182 33.429 98.2963 33.0996C97.9744 32.7701 97.6097 32.5161 97.1998 32.3351C96.7899 32.154 96.3674 32.0635 95.9273 32.0635C95.4872 32.0635 95.0622 32.154 94.6548 32.3351C94.2448 32.5161 93.8802 32.7701 93.5583 33.0996C93.2364 33.429 92.9799 33.8364 92.7912 34.3218C92.6026 34.8072 92.5096 35.3554 92.5096 35.964C92.5096 36.5726 92.6026 37.1209 92.7912 37.6062C92.9799 38.0916 93.2339 38.499 93.5583 38.8285C93.8802 39.1579 94.2448 39.4119 94.6548 39.593C95.0622 39.7741 95.4872 39.8646 95.9273 39.8646Z" fill="#1D1D1B"/>
<path d="M108.773 47.7385C107.971 47.7385 107.262 47.6279 106.64 47.4066C106.019 47.1852 105.481 46.9011 105.026 46.554C104.571 46.2095 104.196 45.8222 103.907 45.3947C103.615 44.9671 103.399 44.5547 103.258 44.1599L105.758 43.0986C105.977 43.7399 106.354 44.263 106.889 44.6653C107.423 45.0677 108.051 45.2689 108.776 45.2689C109.859 45.2689 110.704 44.9369 111.311 44.2755C111.917 43.6141 112.218 42.6861 112.218 41.4941V40.5057H112.078C111.715 41.049 111.218 41.5016 110.581 41.8638C109.945 42.2259 109.203 42.407 108.353 42.407C107.646 42.407 106.962 42.2485 106.303 41.9342C105.645 41.6198 105.059 41.1772 104.548 40.6139C104.038 40.0506 103.633 39.369 103.333 38.5718C103.034 37.7746 102.886 36.9019 102.886 35.9563C102.886 35.0107 103.034 34.1406 103.333 33.3509C103.633 32.5613 104.038 31.8848 104.548 31.3214C105.059 30.7581 105.645 30.3155 106.303 30.0011C106.962 29.6868 107.646 29.5283 108.353 29.5283C109.201 29.5283 109.945 29.7094 110.581 30.0715C111.218 30.4337 111.715 30.8864 112.078 31.4296H112.218V29.9232H114.741V41.3256C114.741 42.3617 114.587 43.2796 114.281 44.0769C113.974 44.8741 113.556 45.5455 113.031 46.0888C112.505 46.632 111.876 47.0419 111.145 47.3236C110.413 47.6027 109.623 47.7435 108.776 47.7435L108.773 47.7385ZM108.866 39.8645C109.291 39.8645 109.706 39.7815 110.116 39.613C110.523 39.4445 110.883 39.1955 111.187 38.861C111.494 38.5265 111.741 38.1166 111.929 37.6312C112.118 37.1459 112.211 36.5876 112.211 35.9513C112.211 35.315 112.118 34.7769 111.929 34.2839C111.741 33.791 111.494 33.3811 111.187 33.0542C110.881 32.7298 110.523 32.4783 110.116 32.3022C109.706 32.1262 109.291 32.0382 108.866 32.0382C108.441 32.0382 108.006 32.1262 107.606 32.3022C107.206 32.4783 106.847 32.7323 106.535 33.0667C106.22 33.4012 105.969 33.8112 105.78 34.2965C105.592 34.7819 105.499 35.3326 105.499 35.9513C105.499 36.57 105.592 37.1207 105.78 37.6061C105.969 38.0915 106.22 38.5014 106.535 38.8359C106.849 39.1703 107.206 39.4243 107.606 39.6004C108.006 39.7764 108.426 39.8645 108.866 39.8645Z" fill="#1D1D1B"/>
<path d="M116.129 42.0128V24.3408H118.747V42.0128H116.129Z" fill="#1D1D1B"/>
<path d="M132.225 36.8617C132.164 37.918 131.85 38.9138 131.289 39.8494C130.726 40.7849 129.851 41.5218 128.659 42.0549C127.869 42.407 127.077 42.5881 126.277 42.5931C125.48 42.5981 124.718 42.4472 123.996 42.1404C123.272 41.8336 122.615 41.3835 122.024 40.7925C121.433 40.2015 120.945 39.4772 120.563 38.6221C120.206 37.8274 119.997 37.0126 119.937 36.1852C119.877 35.3553 119.96 34.5707 120.186 33.8288C120.412 33.0869 120.787 32.4104 121.305 31.7993C121.823 31.1882 122.485 30.7028 123.289 30.3432C124.107 29.9785 124.899 29.7949 125.666 29.7949C126.433 29.7949 127.152 29.9508 127.824 30.2627C128.498 30.5745 129.114 31.0373 129.672 31.6534C130.23 32.267 130.703 33.0039 131.085 33.859C131.118 33.9344 131.148 34.0023 131.176 34.0627C131.196 34.1457 131.219 34.2161 131.244 34.2739C131.256 34.3418 131.277 34.4047 131.304 34.465L123.191 38.094C123.47 38.5995 123.797 39.0044 124.172 39.3037C124.547 39.6054 124.939 39.8167 125.349 39.9399C125.756 40.0631 126.169 40.1059 126.579 40.0657C126.991 40.0254 127.368 39.9273 127.713 39.7739C128.402 39.4671 128.89 39.0396 129.182 38.4939C129.471 37.9507 129.647 37.3571 129.705 36.7184L132.222 36.8617H132.225ZM128.105 33.5949C127.975 33.3836 127.796 33.1623 127.562 32.931C127.331 32.7021 127.052 32.521 126.725 32.3852C126.398 32.252 126.023 32.1815 125.598 32.174C125.173 32.1664 124.708 32.2746 124.207 32.4984C123.518 32.8077 123.023 33.2856 122.718 33.9344C122.414 34.5832 122.339 35.3075 122.49 36.1047L128.105 33.5924V33.5949Z" fill="#1D1D1B"/>
<path d="M137.212 42.2234V23.9453H143.258C144.038 23.9453 144.775 24.0811 145.466 24.3527C146.158 24.6243 146.761 25.0091 147.282 25.502C147.803 25.9949 148.213 26.5859 148.514 27.275C148.816 27.9641 148.964 28.7261 148.964 29.561C148.964 30.396 148.814 31.1303 148.514 31.8194C148.213 32.5085 147.803 33.0995 147.282 33.5924C146.761 34.0853 146.155 34.4701 145.466 34.7417C144.775 35.0133 144.04 35.1491 143.258 35.1491H139.966V42.2209H137.21L137.212 42.2234ZM143.334 32.3953C143.789 32.3953 144.194 32.3148 144.553 32.1539C144.911 31.9929 145.212 31.7741 145.456 31.5025C145.7 31.2309 145.886 30.9241 146.017 30.5846C146.148 30.2451 146.213 29.903 146.213 29.5635C146.213 29.2064 146.148 28.8569 146.017 28.5174C145.886 28.1778 145.7 27.8761 145.456 27.612C145.212 27.3479 144.911 27.1317 144.553 26.9606C144.196 26.7896 143.789 26.7066 143.334 26.7066H139.969V32.4003H143.334V32.3953Z" fill="#1D1D1B"/>
<path d="M150.425 42.2234V23.9453H153.131V42.2234H150.425Z" fill="#1D1D1B"/>
<path d="M162.725 40.692H162.579C162.222 41.1849 161.757 41.6326 161.189 42.0325C160.62 42.4323 159.896 42.6335 159.018 42.6335C158.385 42.6335 157.791 42.5279 157.238 42.3141C156.684 42.1004 156.204 41.8036 155.799 41.4213C155.392 41.0391 155.072 40.5864 154.836 40.0683C154.6 39.5503 154.481 38.9744 154.481 38.3457C154.481 37.6817 154.607 37.0857 154.859 36.5576C155.11 36.0295 155.46 35.5868 155.907 35.2297C156.355 34.8726 156.886 34.596 157.504 34.3998C158.123 34.2037 158.789 34.1056 159.504 34.1056C160.301 34.1056 160.967 34.1861 161.503 34.347C162.039 34.508 162.446 34.6563 162.723 34.7947V34.3093C162.723 33.9346 162.645 33.5875 162.491 33.2631C162.338 32.9387 162.127 32.662 161.858 32.4332C161.588 32.2043 161.284 32.0258 160.942 31.8975C160.6 31.7693 160.243 31.7064 159.868 31.7064C159.267 31.7064 158.727 31.8296 158.246 32.0761C157.766 32.3225 157.341 32.7199 156.966 33.2631L154.821 31.7818C155.389 30.9645 156.096 30.3484 156.941 29.9309C157.786 29.5134 158.744 29.3047 159.818 29.3047C161.588 29.3047 162.959 29.7649 163.927 30.6828C164.896 31.6008 165.378 32.9135 165.378 34.6136V42.2211H162.72V40.6895L162.725 40.692ZM162.725 37.0153C162.368 36.794 161.968 36.6154 161.531 36.4796C161.093 36.3438 160.588 36.2759 160.019 36.2759C159.174 36.2759 158.5 36.4796 157.995 36.8895C157.492 37.297 157.238 37.7924 157.238 38.3708C157.238 38.6776 157.303 38.9442 157.434 39.1756C157.565 39.4044 157.731 39.6056 157.934 39.7766C158.138 39.9476 158.374 40.0734 158.641 40.1589C158.91 40.2444 159.182 40.2871 159.458 40.2871C159.898 40.2871 160.316 40.1966 160.713 40.018C161.111 39.8395 161.458 39.6006 161.749 39.3038C162.041 39.0071 162.278 38.6625 162.456 38.2702C162.635 37.8779 162.725 37.4629 162.725 37.0203V37.0153Z" fill="#1D1D1B"/>
<path d="M169.945 41.5096L164.971 29.7148H167.994L171.286 38.0114H171.406L174.6 29.7148H177.6L170.114 47.7389H167.237L169.943 41.5096H169.945Z" fill="#1D1D1B"/>
<path d="M37.883 21.7718L31.9403 27.7094L14.2432 9.86639C14.8191 9.24018 15.7923 9.01385 16.6298 9.4967L37.883 21.7718Z" fill="#2DC35F"/>
<path d="M45.3401 29.4167L37.8986 33.7146L31.9434 27.7091L37.886 21.7715H37.8885L45.3426 26.0744C46.6302 26.8188 46.6302 28.6748 45.3426 29.4167H45.3401Z" fill="#FFD703"/>
<path d="M37.8993 33.7125L16.6336 45.9927C15.7408 46.5082 14.6921 46.219 14.1338 45.4947L31.9441 27.707L37.8993 33.7125Z" fill="#FE3E4D"/>
<path d="M31.9411 27.7092L14.1307 45.4969C13.8843 45.1801 13.7334 44.7777 13.7334 44.3225V11.1689C13.7334 10.6509 13.9296 10.1982 14.2414 9.86621L31.9386 27.7092H31.9411Z" fill="#01CCF7"/>
</svg>
