<svg width="17" height="16" viewBox="0 0 17 16" fill="none" xmlns="http://www.w3.org/2000/svg">
  <path d="M10.0729 8C10.0729 8.77661 9.4433 9.40625 8.66669 9.40625C7.89008 9.40625 7.26044 8.77661 7.26044 8C7.26044 7.22339 7.89008 6.59375 8.66669 6.59375C9.4433 6.59375 10.0729 7.22339 10.0729 8Z" fill="#EDEDED"/>
  <path d="M11.0417 3.75H6.29169C5.25775 3.75 4.41669 4.59106 4.41669 5.625V10.375C4.41669 11.4089 5.25775 12.25 6.29169 12.25H11.0417C12.0756 12.25 12.9167 11.4089 12.9167 10.375V5.625C12.9167 4.59106 12.0756 3.75 11.0417 3.75ZM8.66669 10.3438C7.37433 10.3438 6.32294 9.29236 6.32294 8C6.32294 6.70764 7.37433 5.65625 8.66669 5.65625C9.95905 5.65625 11.0104 6.70764 11.0104 8C11.0104 9.29236 9.95905 10.3438 8.66669 10.3438ZM11.3542 5.78125C11.0953 5.78125 10.8854 5.57141 10.8854 5.3125C10.8854 5.05359 11.0953 4.84375 11.3542 4.84375C11.6131 4.84375 11.8229 5.05359 11.8229 5.3125C11.8229 5.57141 11.6131 5.78125 11.3542 5.78125Z" fill="#EDEDED"/>
  <path d="M12.4479 0H4.88544C2.55927 0 0.666687 1.89258 0.666687 4.21875V11.7812C0.666687 14.1074 2.55927 16 4.88544 16H12.4479C14.7741 16 16.6667 14.1074 16.6667 11.7812V4.21875C16.6667 1.89258 14.7741 0 12.4479 0ZM13.8542 10.375C13.8542 11.9258 12.5925 13.1875 11.0417 13.1875H6.29169C4.74091 13.1875 3.47919 11.9258 3.47919 10.375V5.625C3.47919 4.07422 4.74091 2.8125 6.29169 2.8125H11.0417C12.5925 2.8125 13.8542 4.07422 13.8542 5.625V10.375Z" fill="#EDEDED"/>
</svg>