<svg width="40" height="40" viewBox="0 0 40 40" fill="none" xmlns="http://www.w3.org/2000/svg">
<mask id="mask0_678_7547" style="mask-type:luminance" maskUnits="userSpaceOnUse" x="0" y="0" width="40" height="40">
<path d="M19.7242 39.2481C30.5026 39.2481 39.2403 30.5231 39.2403 19.7603C39.2403 8.99746 30.5026 0.272461 19.7242 0.272461C8.94568 0.272461 0.208008 8.99746 0.208008 19.7603C0.208008 30.5231 8.94568 39.2481 19.7242 39.2481Z" fill="white"/>
</mask>
<g mask="url(#mask0_678_7547)">
<path d="M34.206 6.62124C34.5903 20.6878 22.1695 30.5292 6.95518 30.5292C5.65226 30.5292 4.40676 30.4543 3.15133 30.3098C2.79358 29.7486 2.46233 29.1687 2.15978 28.5711C2.00299 28.2624 1.85393 27.9481 1.7137 27.6306C1.6342 27.4498 1.55691 27.2679 1.48183 27.0848C1.35153 26.7651 1.22897 26.4398 1.11524 26.1113C0.424034 24.12 0.0419922 21.9844 0.0419922 19.7616C0.0419922 8.90796 8.85435 0.108398 19.7238 0.108398C24.8747 0.108398 28.9049 1.42706 32.1766 4.42714C32.4272 4.65648 32.6734 4.89573 32.9152 5.14601C33.0709 5.30699 33.2255 5.47127 33.3779 5.64106C33.6053 5.89355 33.8295 6.15486 34.0492 6.42609C34.1022 6.49004 34.513 7.07771 34.206 6.62124Z" fill="#23266E"/>
<path d="M39.4051 19.7606C39.4051 30.6142 30.5927 39.4138 19.7233 39.4138C15.9736 39.4138 12.4844 38.3663 9.51199 36.5482C8.64854 36.0201 7.82814 35.4258 7.05743 34.7742C6.42585 34.2394 5.82849 33.6661 5.26758 33.0575C6.75489 33.2626 8.24441 33.3695 9.79908 33.3695C24.3266 33.3695 36.2925 24.0859 37.8714 12.144C38.5041 13.6457 38.9557 15.2422 39.1975 16.906C39.2914 17.5477 39.3532 18.1993 39.383 18.8598C39.3985 19.1586 39.4051 19.4585 39.4051 19.7606Z" fill="#23266E"/>
<path d="M37.9288 12.2075C36.3167 24.1185 24.3674 33.369 9.86643 33.369C8.31066 33.369 6.82224 33.2621 5.33493 33.057H5.33382C4.55207 32.2069 3.8443 31.2874 3.22266 30.3094C4.47589 30.4528 5.72028 30.5277 7.02099 30.5277C17.6464 30.5277 26.4256 25.0866 30.9604 17.4612C32.398 15.2385 34.2884 10.1535 33.9284 9.91971C33.913 9.90869 33.8942 9.90207 33.8732 9.89766C34.0841 8.82156 34.0852 7.79287 34.1382 6.68699C34.0863 6.62194 34.0974 6.77851 34.0455 6.71456C33.9715 6.62415 34.1205 6.4731 34.0455 6.38379C35.7437 8.11922 36.9682 9.94066 37.9288 12.2075Z" fill="white"/>
<mask id="mask1_678_7547" style="mask-type:luminance" maskUnits="userSpaceOnUse" x="0" y="1" width="35" height="27">
<path d="M1.03446 27.6547C1.03446 27.6547 13.0091 29.4386 23.9581 20.778C29.5087 16.3887 32.8532 13.1405 34.1782 10.6774C35.2084 8.76115 34.7734 7.11061 34.7734 7.11061C34.7734 7.11061 31.2621 2.73343 22.7512 1.47761C14.2403 0.221786 8.28552 5.07417 8.28552 5.07417C8.28552 5.07417 -2.90741 15.2078 1.03446 27.6547Z" fill="white"/>
</mask>
<g mask="url(#mask1_678_7547)">
<path d="M38.5638 4.00921C38.386 3.88021 37.6926 4.36313 37.6926 4.36313C37.6926 4.36313 35.7559 5.426 35.1596 5.684C34.5623 5.942 32.7713 7.26287 32.1099 8.21328C31.4485 9.16369 30.4802 10.5816 30.4802 10.5816L27.4304 14.2873C27.4304 14.2873 26.5913 14.2708 26.2368 14.2068C25.8824 14.1429 25.3657 14.0613 25.2851 14.2873C25.2044 14.5133 25.221 14.9477 25.1238 15.1253C25.0267 15.3028 24.8014 15.5277 24.7363 15.6247C24.6722 15.7217 23.8485 15.8177 23.6067 15.8507C23.3649 15.8827 22.8647 15.9632 22.8647 15.9632C22.8647 15.9632 22.8967 16.2366 22.8161 16.2852C22.7355 16.3337 22.1227 16.3337 21.7352 16.4781C21.3476 16.6236 20.154 16.8805 19.8636 16.8805C19.5732 16.8805 18.702 16.961 18.5077 16.9776C18.3144 16.9941 17.0071 17.1871 16.7653 16.9291C16.5235 16.6711 15.8941 15.8011 15.6192 15.5916C15.3453 15.3822 14.8606 15.5112 14.377 15.1242C14.006 14.8276 13.6549 14.5321 13.3866 14.338C13.5853 13.8264 13.6792 13.2476 13.762 12.7294C13.7708 12.6754 13.7774 12.6213 13.7841 12.5684C13.7841 12.5673 13.7841 12.5662 13.7841 12.5651C13.8702 11.8418 13.7564 11.2266 13.6781 10.919C13.7642 10.8815 13.8172 10.8264 13.7951 10.7426C13.7145 10.4361 13.6019 10.6136 13.4727 10.2431C13.3435 9.87264 13.2794 8.90569 13.0851 8.40623C12.8919 7.90677 12.2294 6.03793 9.63239 6.24741C7.03428 6.4569 6.6953 8.76126 6.80903 9.61464C6.80903 9.61464 6.40601 9.67859 6.27682 9.74364C6.14764 9.80759 6.08359 10.1306 6.40601 10.2266C6.72843 10.3236 6.74499 10.3071 6.76045 10.5651C6.77701 10.8231 6.67984 10.8716 6.76045 11.048C6.84105 11.2255 7.03428 11.0645 6.9868 11.2894C6.93822 11.5155 6.95478 11.6434 7.00336 11.9499C7.05195 12.2564 6.9868 12.3203 7.19659 12.4174C7.40639 12.5144 7.55103 12.4008 7.55103 12.5464C7.55103 12.6919 7.71224 13.0138 7.71224 13.0138L7.27609 13.0304C7.27609 13.0304 6.85651 12.7084 6.63016 12.9179C6.4038 13.1274 6.43693 13.4008 6.45238 13.7074C6.46895 14.0139 6.53299 14.3843 6.51643 14.5773C6.49986 14.7702 6.22603 14.8673 6.0328 15.0448C5.83957 15.2223 5.90361 15.4152 5.79099 15.9952C5.67836 16.5751 5.50059 16.8651 5.30736 18.0096C5.11414 19.154 5.06555 20.1684 5.46857 21.2158C5.87159 22.2633 6.04936 22.8597 6.46895 23.8741C6.88853 24.8896 7.29155 25.8554 7.37216 26.3714C7.45276 26.8874 7.11378 26.7253 7.08176 27.1774C7.04974 27.6283 7.30039 28.1124 7.3843 28.4178C7.46822 28.7243 7.29155 29.2712 7.48478 29.6747C7.67801 30.0771 7.92093 29.8357 7.63053 30.2866C7.34014 30.7376 6.96914 30.8831 6.90399 31.237C6.83995 31.591 6.87197 31.7045 7.09722 31.914C7.32357 32.1235 7.24297 32.1874 7.24297 32.1874C7.24297 32.1874 7.16236 33.4444 7.22641 34.0078C7.29045 34.5712 7.11378 35.1522 7.29045 35.5712C7.46822 35.9902 7.50024 35.6517 7.50024 36.4577C7.50024 37.2636 7.20984 38.4555 7.12924 39.1964C7.04864 39.9374 6.79026 40.6463 6.72622 40.9683C6.66218 41.2902 6.58047 41.3222 6.56501 41.7897C6.54845 42.2572 6.68316 42.0157 6.46232 42.7566C6.24149 43.4975 6.04826 44.126 5.95109 44.7225C5.85393 45.319 5.69272 45.3344 5.54807 45.3995C5.40232 45.4634 5.25768 45.577 5.25768 45.867C5.25768 46.1569 5.16051 46.3984 5.16051 46.3984L4.36993 46.9783C4.36993 46.9783 4.19216 46.8008 4.01549 46.9783C3.83772 47.1558 3.16086 47.5583 3.11228 47.7997C3.0637 48.0412 3.04824 48.3797 3.04824 48.3797C3.04824 48.3797 1.32132 51.6499 1.24072 52.7458C1.24072 52.7458 0.772552 53.0524 0.627906 53.1328C0.482156 53.2133 0.515281 53.4879 0.401551 53.7613C0.288927 54.0347 -0.0500526 54.4217 -0.0500526 54.4217C-0.0500526 54.4217 -1.7582 56.6963 -1.98455 56.9698C-2.21091 57.2432 -2.24293 57.4373 -2.21091 57.6467C-2.17889 57.8562 -2.90432 57.7107 -2.63049 58.9191C-2.35666 60.1275 -1.98455 59.9985 -1.96909 60.4175C-1.95253 60.8365 -2.00112 61.6579 -1.6787 62.2058C-1.35628 62.7538 -0.339345 62.9468 0.644468 62.9468C1.62828 62.9468 1.98382 62.5598 1.70888 61.8023C1.43505 61.0448 1.01547 60.8354 1.09607 60.4329C1.17668 60.0305 1.64484 59.6755 1.64484 59.6755C1.64484 59.6755 1.93524 60.4649 2.33826 60.0459C2.74128 59.6269 4.1778 56.7746 5.79099 55.0667C7.40418 53.3589 8.11416 51.5871 8.95332 50.9255C9.79249 50.2651 9.61472 50.2651 9.61472 50.2651C9.61472 50.2651 10.2441 50.1846 10.4539 49.4756C10.4539 49.4756 11.1318 48.9442 11.1153 48.4282C11.1153 48.4282 11.4543 47.9927 11.4543 47.2683C11.4543 47.2683 12.0185 46.1889 12.3254 45.5439C12.6324 44.8989 13.0995 43.868 12.8897 43.481C12.6799 43.094 12.5187 43.191 12.5187 43.191L14.0998 40.7742C14.0998 40.7742 15.5198 42.836 16.9232 43.674C18.3266 44.5119 19.5213 45.3818 19.5699 45.4943C19.6185 45.6067 19.5699 45.6718 19.6825 45.7843C19.7951 45.8967 19.8757 46.0742 19.8757 46.2032C19.8757 46.3322 19.8757 47.0412 19.8757 47.0412C19.8757 47.0412 19.8437 47.1536 19.7951 47.4602C19.7466 47.7667 19.7951 48.7005 19.8757 48.91C19.9563 49.1195 20.2633 49.103 20.2633 49.103C20.2633 49.103 20.3273 49.4734 20.5371 50.1824C20.7469 50.8913 21.2471 52.0678 21.5695 52.6477C21.8919 53.2277 22.1183 53.5981 22.2309 54.0336C22.3436 54.4692 22.8437 55.3711 22.8117 55.725C22.7797 56.0789 22.5533 56.2244 22.5533 56.5464C22.5533 56.8683 22.6825 57.8353 22.6991 58.0282C22.7157 58.2212 22.4407 58.6082 22.3436 58.7692C22.2464 58.9301 22.1172 59.5751 22.4893 59.8805C22.8603 60.187 23.4411 60.541 23.9258 60.606C24.4094 60.67 24.6038 60.2995 24.9902 60.735C25.3778 61.1705 26.7812 61.7659 27.6369 62.0559C28.4916 62.3459 29.9446 62.1529 30.0252 61.7174C30.1058 61.2819 29.7183 61.0404 29.0889 60.606C28.4595 60.1705 27.701 59.5101 27.4106 59.3337C27.1202 59.1562 26.959 58.6567 26.959 58.6567C26.959 58.6567 28.9763 57.6743 28.6053 56.4328C28.2343 55.1924 27.6215 52.4206 27.2825 51.4702C26.9435 50.5198 26.3462 47.7325 26.2335 47.0721C26.1209 46.4116 25.8791 45.0907 25.9431 44.7677C26.0072 44.4457 25.9917 43.9617 25.8139 43.7688C25.6362 43.5758 25.5721 43.5593 25.5721 43.5593C25.5721 43.5593 25.6207 43.1083 25.475 42.9628C25.3292 42.8173 25.2486 42.7853 25.2486 42.7853C25.2486 42.7853 25.3458 42.1403 25.136 41.9639C24.9262 41.7864 24.6524 41.7544 24.6524 41.7544C24.6524 41.7544 23.9104 40.127 23.62 39.611C23.3296 39.095 23.249 38.0906 22.8614 37.8921C22.4738 37.6936 21.9902 37.8921 21.9902 37.8921C21.9902 37.8921 20.1021 34.1974 19.6991 33.7299C19.2961 33.2624 18.6501 32.0706 18.5695 31.8126C18.4889 31.5546 18.5375 31.0551 18.1013 30.7971C17.6652 30.5391 16.6173 29.9911 16.6173 29.8467C16.6173 29.7012 17.0855 29.5733 16.9718 29.1212C16.8592 28.6703 16.6648 28.4442 16.6648 27.8808C16.6648 27.3174 16.5677 26.7364 16.4385 26.6085C16.3093 26.4795 16.1967 26.4629 16.1161 26.012C16.0354 25.561 16.2618 23.5786 16.1801 22.8057C16.0995 22.0328 16.1161 20.8398 16.1161 20.8398C16.1161 20.8398 17.4874 20.8884 18.0848 20.7759C18.6821 20.6634 19.0852 20.4859 19.0852 20.4859C19.0852 20.4859 19.7951 21.5168 20.3119 21.7583C20.8286 21.9997 21.8931 21.2103 22.2806 21.2268C22.6682 21.2434 23.0072 21.5808 23.1363 21.6624C23.2655 21.7428 23.0237 21.7748 23.3296 21.9689C23.6365 22.1618 24.0881 22.0494 24.5077 22.0494C24.9273 22.0494 25.5401 21.9854 25.5721 21.7594C25.6042 21.5334 25.5721 21.4694 25.5721 21.4694C25.5721 21.4694 25.9266 21.3404 25.9266 21.196C25.9266 21.0504 25.9431 20.9865 25.9431 20.9865C25.9431 20.9865 26.4599 20.7131 26.4599 20.5036C26.4599 20.2941 26.4599 20.2941 26.4599 20.2941C26.4599 20.2941 26.8143 19.8112 26.8309 19.6656C26.8474 19.5201 27.6866 19.3756 27.977 18.6832C27.977 18.6832 28.6064 18.5708 28.8482 17.6358C28.8482 17.6358 29.9126 16.9268 29.3318 16.4274C29.3318 16.4274 29.0249 16.1374 28.8482 16.1374C28.6704 16.1374 28.8968 15.896 28.8968 15.5894C28.8968 15.2829 28.8482 15.0734 28.6384 14.993L32.8011 10.5617C32.8011 10.5617 33.7076 9.60362 35.0238 9.73482C37.2608 9.95754 38.5616 5.09523 38.5616 4.95521C38.5638 4.71816 38.7415 4.13821 38.5638 4.00921ZM13.5997 12.7051C13.5643 12.9234 13.5279 13.1528 13.4815 13.3821L13.4219 12.725C13.4937 12.7051 13.5555 12.6875 13.603 12.6743C13.603 12.6842 13.6019 12.6952 13.5997 12.7051ZM13.5191 10.9653C13.5908 11.2542 13.6979 11.8275 13.6273 12.4956C13.5809 12.5089 13.5058 12.5309 13.4075 12.5574L13.2651 10.9895C13.3479 10.9873 13.4373 10.9796 13.5191 10.9653ZM12.6501 12.3876C12.7307 12.2101 12.8433 12.3556 12.8919 11.9852C12.9405 11.6147 12.9725 11.4372 12.9725 11.3247C12.9725 11.2123 12.9725 10.9862 12.9725 10.9862C12.9725 10.9862 13.0244 10.9895 13.1006 10.9917C13.1006 10.994 13.0995 10.9973 13.0995 10.9995L13.2441 12.6026C13.0531 12.6533 12.8135 12.7151 12.5496 12.7757C12.586 12.6026 12.6225 12.4493 12.6501 12.3876ZM12.4248 13.4835C12.4248 13.4835 12.4657 13.2233 12.5165 12.9532C12.798 12.8893 13.0564 12.8242 13.2607 12.7691L13.3435 13.6864C13.2309 13.7294 13.0376 13.7967 12.7748 13.8617C12.5871 13.6732 12.4248 13.4835 12.4248 13.4835ZM13.2463 14.2432C13.2187 14.2256 13.1911 14.2068 13.1668 14.1925C13.0928 14.1495 13.0056 14.0778 12.9173 13.9973C13.1072 13.9466 13.2563 13.8959 13.3601 13.8573L13.3634 13.8893C13.3291 14.0095 13.2905 14.1285 13.2463 14.2432Z" fill="white"/>
</g>
<path d="M8.9699 27.8039C8.93126 27.4236 8.58897 27.1457 8.20803 27.1854C7.45167 27.2626 6.67545 27.31 5.91467 27.3243C5.53263 27.332 5.22678 27.6474 5.2334 28.0311C5.24113 28.4137 5.55692 28.718 5.94117 28.7113C6.33426 28.7047 6.73617 28.6893 7.13036 28.665C7.5367 28.6408 7.94634 28.6077 8.34936 28.5658C8.73251 28.5261 9.00965 28.1865 8.9699 27.8039ZM3.61911 27.2703C3.00188 27.2295 2.10972 27.1678 1.48145 27.0829C1.55653 27.267 1.63272 27.4489 1.71332 27.6286C1.85465 27.9462 2.00261 28.2604 2.1594 28.5691C2.55801 28.6033 3.19511 28.6309 3.52857 28.6529C3.55728 28.6551 3.58709 28.6551 3.6158 28.654C3.9614 28.6331 4.24407 28.3596 4.26726 28.0068C4.29265 27.6264 4.00226 27.2957 3.61911 27.2703ZM13.5721 26.8171C13.4694 26.4489 13.0862 26.2328 12.7163 26.3353C11.9832 26.5393 11.2301 26.7157 10.4804 26.8557C10.1039 26.9274 9.85544 27.2901 9.92722 27.6661C9.99347 28.0134 10.307 28.2516 10.6504 28.2306C10.6792 28.2295 10.709 28.2251 10.7377 28.2196C11.526 28.0708 12.3177 27.8877 13.0884 27.6716C13.4594 27.5691 13.6748 27.1865 13.5721 26.8171ZM17.9402 25.0641C17.7756 24.7179 17.3616 24.5701 17.0149 24.7333C16.3248 25.0608 15.6137 25.3607 14.9004 25.6264C14.5415 25.7598 14.3582 26.16 14.4929 26.5183C14.6012 26.8105 14.8882 26.9869 15.1842 26.9693C15.2515 26.9649 15.32 26.9517 15.3862 26.9263C16.1382 26.6473 16.8857 26.3309 17.61 25.988C17.9567 25.8237 18.1036 25.4103 17.9402 25.0641ZM21.9439 22.5965C21.723 22.2823 21.2902 22.2073 20.9766 22.4278C20.3528 22.8656 19.7035 23.2823 19.0443 23.6649C18.7131 23.859 18.6015 24.2834 18.7948 24.6131C18.9306 24.8469 19.1834 24.9715 19.4363 24.9571C19.5412 24.9516 19.6472 24.9196 19.7444 24.8634C20.4356 24.461 21.1191 24.0221 21.7749 23.5624C22.0885 23.3419 22.1647 22.9097 21.9439 22.5965ZM25.475 19.4873C25.2045 19.2161 24.765 19.215 24.4923 19.484C23.9512 20.0209 23.3804 20.5413 22.7963 21.0309C22.5015 21.2768 22.4639 21.7145 22.7102 22.0078C22.857 22.1831 23.0723 22.2669 23.2843 22.2547C23.429 22.2459 23.5703 22.193 23.6896 22.0938C24.3024 21.58 24.903 21.0331 25.4717 20.4686C25.7444 20.1984 25.7455 19.7585 25.475 19.4873ZM28.433 15.8301C28.1206 15.6074 27.6877 15.6801 27.4647 15.9922C27.0219 16.6129 26.546 17.2204 26.0525 17.8004C25.804 18.0926 25.8405 18.5303 26.1331 18.7783C26.2744 18.8996 26.4522 18.9526 26.6244 18.9426C26.8066 18.9316 26.9855 18.85 27.1125 18.7001C27.6325 18.0903 28.1316 17.4498 28.5965 16.7992C28.8173 16.4861 28.7444 16.0528 28.433 15.8301ZM30.733 11.7263C30.3874 11.5588 29.9723 11.7043 29.8055 12.0483C29.4732 12.733 29.1077 13.4133 28.719 14.0693C28.5236 14.399 28.6329 14.8246 28.9619 15.0197C29.0856 15.0936 29.2236 15.1233 29.3572 15.1156C29.5803 15.1024 29.7923 14.9833 29.9137 14.7771C30.3234 14.088 30.7076 13.3725 31.0565 12.6525C31.2222 12.3085 31.0786 11.8928 30.733 11.7263ZM32.3032 7.29294C31.9344 7.18709 31.549 7.39988 31.443 7.76814C31.2321 8.49914 30.9881 9.23124 30.7154 9.9424C30.5784 10.3007 30.7573 10.7021 31.1162 10.8388C31.2111 10.8741 31.3105 10.8884 31.4055 10.8829C31.6694 10.8674 31.9123 10.701 32.0139 10.4374C32.2998 9.68881 32.5571 8.91922 32.779 8.14963C32.885 7.78248 32.6708 7.39878 32.3032 7.29294ZM32.9149 5.14514C32.673 4.89596 32.4268 4.6556 32.1762 4.42627C32.1188 4.80004 32.0547 5.1716 31.9818 5.53986C31.9079 5.91583 32.153 6.28078 32.5295 6.35465C32.588 6.36568 32.6477 6.37009 32.7051 6.36678C33.0131 6.34804 33.2814 6.12532 33.3444 5.80778C33.3554 5.75265 33.3665 5.69642 33.3764 5.64019C33.2251 5.4704 33.0717 5.30612 32.9149 5.14514Z" fill="#F05A28"/>
<path d="M37.5172 21.2732C37.1826 21.0857 36.7586 21.2059 36.572 21.54C36.1999 22.2048 35.7936 22.8609 35.3662 23.4915C35.1509 23.8091 35.2348 24.2402 35.5517 24.4552C35.671 24.5357 35.8068 24.5743 35.9404 24.5743C36.1634 24.5743 36.3821 24.4673 36.5168 24.2688C36.9662 23.6051 37.3935 22.9149 37.7844 22.2159C37.971 21.8829 37.8517 21.4606 37.5172 21.2732ZM34.9754 25.2314C34.6772 24.991 34.24 25.0373 33.9993 25.335C33.5201 25.9271 33.0088 26.5059 32.4811 27.0561C32.2161 27.3329 32.2249 27.7717 32.502 28.0363C32.6367 28.1653 32.8101 28.2293 32.9823 28.2293C33.1645 28.2293 33.3478 28.1576 33.4836 28.0154C34.039 27.4376 34.5757 26.8279 35.0792 26.2061C35.3199 25.9095 35.2735 25.4728 34.9754 25.2314ZM31.8031 28.7067C31.5502 28.4189 31.1108 28.3913 30.8226 28.6449C30.2506 29.1488 29.65 29.6339 29.0372 30.0871C28.7291 30.3153 28.6651 30.7497 28.8925 31.0573C29.0283 31.2415 29.2381 31.3385 29.4512 31.3385C29.5959 31.3385 29.7405 31.2933 29.8642 31.2018C30.5068 30.7255 31.1395 30.215 31.7413 29.6868C32.0294 29.4322 32.0571 28.9933 31.8031 28.7067ZM28.092 31.5987C27.891 31.2723 27.4626 31.1709 27.1358 31.3727C26.4865 31.7718 25.813 32.15 25.1328 32.4929C24.7905 32.666 24.6536 33.0838 24.827 33.4245C24.9495 33.666 25.1936 33.806 25.4475 33.806C25.5524 33.806 25.6595 33.7818 25.76 33.7311C26.4744 33.3705 27.1833 32.9736 27.8645 32.5535C28.1925 32.3517 28.2941 31.9239 28.092 31.5987ZM23.9469 33.8226C23.8034 33.4675 23.3993 33.2944 23.0437 33.4378C22.336 33.7222 21.6072 33.9791 20.8796 34.2029C20.513 34.3143 20.3065 34.7035 20.4191 35.0685C20.5108 35.3673 20.7857 35.5591 21.0827 35.5591C21.1501 35.5591 21.2186 35.5492 21.287 35.5282C22.0533 35.2945 22.8196 35.0233 23.5638 34.7245C23.9182 34.5822 24.0905 34.1787 23.9469 33.8226ZM19.4828 35.3121C19.4022 34.9373 19.0323 34.7002 18.658 34.7796C17.9127 34.9395 17.1519 35.0696 16.3945 35.1655C16.0135 35.214 15.7452 35.5613 15.7927 35.9406C15.8379 36.2912 16.1372 36.547 16.4817 36.547C16.5104 36.547 16.5402 36.5448 16.57 36.5415C17.3661 36.4401 18.1666 36.3033 18.9495 36.1357C19.3249 36.0553 19.5634 35.687 19.4828 35.3121ZM9.52101 35.1699C8.76466 35.0751 8.00278 34.9461 7.25747 34.7862C7.19012 34.7719 7.12276 34.7675 7.05762 34.7741C7.82722 35.4257 8.64762 36.0189 9.51218 36.5481C9.82355 36.5128 10.0819 36.2692 10.1239 35.9461C10.1714 35.5646 9.90195 35.2184 9.52101 35.1699ZM14.1066 35.3595C13.347 35.3915 12.5696 35.3915 11.8088 35.3606C11.4257 35.3452 11.1022 35.6418 11.0867 36.0255C11.0713 36.4081 11.3683 36.7311 11.7525 36.7466C12.1456 36.7631 12.5475 36.7708 12.9428 36.7708C13.3492 36.7708 13.761 36.762 14.1662 36.7455C14.5494 36.7289 14.8475 36.4059 14.831 36.0233C14.8144 35.6407 14.4909 35.343 14.1066 35.3595ZM39.3843 18.8597C39.2231 19.2654 39.052 19.6689 38.872 20.0648C38.756 20.3206 38.5032 20.4727 38.2393 20.4727C38.1432 20.4727 38.0461 20.4518 37.9533 20.411C37.6044 20.2533 37.4487 19.8421 37.6077 19.4925C37.9224 18.7979 38.2106 18.0824 38.4645 17.3646C38.5738 17.0537 38.8841 16.8695 39.1999 16.9059L39.3843 18.8597Z" fill="#00AE51"/>
</g>
<mask id="mask2_678_7547" style="mask-type:luminance" maskUnits="userSpaceOnUse" x="0" y="0" width="40" height="40">
<path d="M19.7242 39.2481C30.5026 39.2481 39.2403 30.5231 39.2403 19.7603C39.2403 8.99746 30.5026 0.272461 19.7242 0.272461C8.94568 0.272461 0.208008 8.99746 0.208008 19.7603C0.208008 30.5231 8.94568 39.2481 19.7242 39.2481Z" fill="white"/>
</mask>
<g mask="url(#mask2_678_7547)">
<path opacity="0.44" d="M-16.0156 -0.892017L75.4911 -13.0312L81.2935 30.5851L33.7271 36.8951C30.7602 16.491 14.1789 3.89532 -16.0156 -0.892017Z" fill="url(#paint0_linear_678_7547)"/>
</g>
<defs>
<linearGradient id="paint0_linear_678_7547" x1="46.7217" y1="-19.4792" x2="13.892" y2="60.7731" gradientUnits="userSpaceOnUse">
<stop stopColor="white"/>
<stop offset="0.1023" stopColor="white"/>
<stop offset="0.406" stopColor="white" stop-opacity="0.4"/>
<stop offset="0.6071" stopColor="white" stop-opacity="0.4"/>
<stop offset="1" stopColor="white" stop-opacity="0"/>
</linearGradient>
</defs>
</svg>
