<svg width="23" height="16" viewBox="0 0 23 16" fill="none" xmlns="http://www.w3.org/2000/svg">
  <path d="M22.533 2.50362C22.2718 1.52463 21.5062 0.752899 20.5352 0.489286C18.7615 0 11.6664 0 11.6664 0C11.6664 0 4.57156 0 2.79782 0.470736C1.84558 0.734069 1.06129 1.52477 0.800095 2.50362C0.333313 4.29172 0.333313 8 0.333313 8C0.333313 8 0.333313 11.727 0.800095 13.4964C1.06157 14.4752 1.8269 15.247 2.79796 15.5106C4.59024 16 11.6667 16 11.6667 16C11.6667 16 18.7615 16 20.5352 15.5293C21.5063 15.2658 22.2718 14.4941 22.5332 13.5152C22.9999 11.727 22.9999 8.01883 22.9999 8.01883C22.9999 8.01883 23.0186 4.29172 22.533 2.50362ZM9.40747 11.4258V4.57416L15.3074 8L9.40747 11.4258Z" fill="#EDEDED"/>
</svg>